<svg width="172" height="71" viewBox="0 0 172 71" fill="none" xmlns="http://www.w3.org/2000/svg">
<mask id="mask0_604_89" style="mask-type:luminance" maskUnits="userSpaceOnUse" x="0" y="0" width="171" height="71">
<path d="M170.939 0H0.860107V70.866H170.939V0Z" fill="white"/>
</mask>
<g mask="url(#mask0_604_89)">
<path fill-rule="evenodd" clip-rule="evenodd" d="M29.4651 70.1319C30.5071 70.1319 31.7461 70.0169 32.3971 69.7569C32.6901 69.6259 32.7231 69.5919 32.8201 69.2839C32.9851 68.7299 33.1791 67.3129 33.1791 67.1979C33.1791 67.0679 33.1471 66.9539 33.0641 66.9539C32.9661 66.9539 32.9351 67.0199 32.9011 67.1979C32.8531 67.4919 32.6401 68.2089 32.2991 68.5669C31.6471 69.2339 30.6861 69.3799 29.4661 69.3799C25.9801 69.3799 23.5861 66.5299 23.5861 63.4189C23.5861 61.7579 23.8631 60.3089 25.0521 59.1679C25.6221 58.6139 26.6311 57.9789 28.7991 57.9789C30.2321 57.9789 31.4861 58.4199 32.0551 58.9089C32.4781 59.2659 32.7391 59.9329 32.7391 60.5689C32.7391 60.7979 32.7561 60.9119 32.8701 60.9119C32.9671 60.9119 33.0001 60.8129 33.0161 60.5689C33.0331 60.3259 33.0331 59.4289 33.0651 58.8919C33.0971 58.3059 33.1481 58.1099 33.1481 57.9789C33.1481 57.8819 33.1151 57.8169 32.9361 57.8009C32.4151 57.7669 31.8941 57.6699 31.2741 57.5559C30.4751 57.4099 29.5631 57.3619 28.9121 57.3619C26.4041 57.3619 24.9231 58.1269 23.9441 59.1029C22.4941 60.5529 22.1201 62.4589 22.1201 63.5489C22.1201 65.0959 22.5121 66.9539 24.0911 68.3699C25.3771 69.5269 27.0231 70.1319 29.4651 70.1319ZM36.9541 68.1109C36.6601 68.9249 36.3351 69.5439 35.5851 69.6419C35.4551 69.6569 35.2281 69.6739 35.1111 69.6739C35.0301 69.6739 34.9661 69.7069 34.9661 69.7719C34.9661 69.8679 35.0641 69.9009 35.2761 69.9009C36.0421 69.9009 36.9371 69.8519 37.1161 69.8519C37.2951 69.8519 37.9961 69.9009 38.3871 69.9009C38.5331 69.9009 38.6311 69.8689 38.6311 69.7719C38.6311 69.7079 38.5821 69.6739 38.4671 69.6739H38.3051C38.0281 69.6739 37.6871 69.5269 37.6871 69.2009C37.6871 68.9079 37.7661 68.5149 37.9141 68.1089L38.8921 65.2269C38.9231 65.1459 38.9731 65.0949 39.0541 65.0949H42.5551C42.6371 65.0949 42.6701 65.1289 42.7031 65.1939L44.2151 69.2009C44.3151 69.4609 44.2151 69.6079 44.1201 69.6409C44.0531 69.6569 44.0031 69.6879 44.0031 69.7549C44.0031 69.8509 44.1821 69.8509 44.4921 69.8669C45.6171 69.8989 46.8071 69.8989 47.0511 69.8989C47.2291 69.8989 47.3771 69.8669 47.3771 69.7699C47.3771 69.6869 47.3101 69.6719 47.2131 69.6719C47.0501 69.6719 46.8071 69.6539 46.5631 69.5729C46.2181 69.4759 45.7481 69.2149 45.1611 67.7659C44.1681 65.2899 41.6111 58.5629 41.3671 57.9449C41.1731 57.4389 41.1061 57.3589 41.0091 57.3589C40.9091 57.3589 40.8461 57.4559 40.6511 57.9919L36.9541 68.1109ZM39.2351 64.5119C39.1851 64.5119 39.1521 64.4779 39.1851 64.3979L40.6191 59.9999C40.7001 59.7559 40.7811 59.7559 40.8641 59.9999L42.4111 64.3979C42.4271 64.4629 42.4271 64.5119 42.3441 64.5119H39.2351ZM51.1581 59.8859C51.6791 60.4719 53.5171 62.5239 55.4041 64.5599C57.1291 66.4169 59.4701 68.8109 59.6491 68.9739C60.5131 69.8379 60.7111 70.0169 60.8411 70.0169C60.9541 70.0169 60.9871 69.9359 60.9871 68.8609L61.0201 59.3169C61.0201 58.3389 61.0861 57.9809 61.6241 57.8669C61.8191 57.8189 61.9321 57.8189 62.0141 57.8189C62.1281 57.8189 62.1941 57.7689 62.1941 57.7049C62.1941 57.6069 62.0811 57.5909 61.9021 57.5909C61.2331 57.5909 60.6951 57.6399 60.5141 57.6399C60.3361 57.6399 59.5531 57.5909 58.8221 57.5909C58.6291 57.5909 58.4961 57.6079 58.4961 57.7049C58.4961 57.7689 58.5141 57.8189 58.6291 57.8189C58.7571 57.8189 59.1301 57.8349 59.4231 57.8989C59.9271 58.0299 60.0421 58.3879 60.0581 59.4479L60.2381 67.7209C59.7171 67.1839 57.9441 65.1969 56.3351 63.4689C53.8281 60.7819 51.4051 58.1609 51.1601 57.8839C50.9971 57.7199 50.7181 57.3629 50.5871 57.3629C50.4561 57.3629 50.4091 57.5429 50.4091 58.1769L50.3911 67.5089C50.3911 68.9899 50.3101 69.4629 49.9031 69.5769C49.6591 69.6579 49.3671 69.6759 49.2361 69.6759C49.1551 69.6759 49.1061 69.7089 49.1061 69.7739C49.1061 69.8859 49.2041 69.9029 49.3671 69.9029C50.1001 69.9029 50.7841 69.8539 50.9341 69.8539C51.0791 69.8539 51.7311 69.9029 52.6561 69.9029C52.8511 69.9029 52.9501 69.8709 52.9501 69.7739C52.9501 69.7099 52.9011 69.6759 52.8201 69.6759C52.6731 69.6759 52.3181 69.6579 52.0081 69.5769C51.5691 69.4459 51.4051 69.0239 51.3711 67.6869L51.1581 59.8859ZM67.8001 59.8859C68.3191 60.4719 70.1561 62.5239 72.0461 64.5599C73.7691 66.4169 76.1111 68.8109 76.2911 68.9739C77.1541 69.8379 77.3531 70.0169 77.4811 70.0169C77.5961 70.0169 77.6301 69.9359 77.6301 68.8609L77.6591 59.3169C77.6591 58.3389 77.7251 57.9809 78.2621 57.8669C78.4591 57.8189 78.5731 57.8189 78.6551 57.8189C78.7711 57.8189 78.8341 57.7689 78.8341 57.7049C78.8341 57.6069 78.7211 57.5909 78.5421 57.5909C77.8731 57.5909 77.3361 57.6399 77.1541 57.6399C76.9751 57.6399 76.1941 57.5909 75.4631 57.5909C75.2681 57.5909 75.1371 57.6079 75.1371 57.7049C75.1371 57.7689 75.1551 57.8189 75.2671 57.8189C75.3981 57.8189 75.7691 57.8349 76.0611 57.8989C76.5671 58.0299 76.6811 58.3879 76.6991 59.4479L76.8771 67.7209C76.3571 67.1839 74.5831 65.1969 72.9731 63.4689C70.4681 60.7819 68.0431 58.1609 67.8011 57.8839C67.6381 57.7199 67.3581 57.3629 67.2271 57.3629C67.0981 57.3629 67.0501 57.5429 67.0501 58.1769L67.0321 67.5089C67.0321 68.9899 66.9501 69.4629 66.5451 69.5769C66.3001 69.6579 66.0051 69.6759 65.8761 69.6759C65.7941 69.6759 65.7451 69.7089 65.7451 69.7739C65.7451 69.8859 65.8441 69.9029 66.0051 69.9029C66.7381 69.9029 67.4231 69.8539 67.5721 69.8539C67.7191 69.8539 68.3701 69.9029 69.2961 69.9029C69.4911 69.9029 69.5881 69.8709 69.5881 69.7739C69.5881 69.7099 69.5401 69.6759 69.4601 69.6759C69.3131 69.6759 68.9551 69.6579 68.6461 69.5769C68.2071 69.4459 68.0431 69.0239 68.0121 67.6869L67.8001 59.8859ZM84.6131 59.5759C84.3711 58.9399 84.1761 58.4359 84.1761 58.2229C84.1761 58.1089 84.2071 57.9789 84.3861 57.8969C84.5321 57.8329 84.8241 57.8169 85.0041 57.8169C85.1171 57.8169 85.1671 57.7839 85.1671 57.7029C85.1671 57.6199 85.0201 57.5889 84.7281 57.5889C84.1091 57.5889 83.3781 57.6379 83.2101 57.6379C83.0171 57.6379 82.0901 57.5889 81.3091 57.5889C81.0451 57.5889 80.8821 57.6059 80.8821 57.7029C80.8821 57.7669 80.9171 57.8169 81.0141 57.8169C81.1111 57.8169 81.3881 57.8169 81.6331 57.8809C82.2031 58.0439 82.4461 58.2229 82.8061 59.1349L86.7961 69.1189C87.1071 69.8999 87.1861 70.1309 87.3841 70.1309C87.5431 70.1309 87.6131 69.8669 88.0681 68.8919C88.4421 68.0929 89.1731 66.3339 90.1691 63.9559C90.9981 61.9529 91.8131 59.9979 91.9921 59.5419C92.4321 58.4359 92.6781 58.1579 92.8881 58.0109C93.1981 57.8169 93.5571 57.8169 93.6691 57.8169C93.8011 57.8169 93.8661 57.7839 93.8661 57.7029C93.8661 57.6199 93.7681 57.5889 93.5881 57.5889C93.1161 57.5889 92.4161 57.6379 92.3161 57.6379C92.1231 57.6379 91.3721 57.5889 90.7211 57.5889C90.4611 57.5889 90.3651 57.6199 90.3651 57.7189C90.3651 57.8019 90.4461 57.8179 90.5441 57.8179C90.7221 57.8179 90.9671 57.8179 91.1621 57.8819C91.3251 57.9639 91.3721 58.1259 91.3721 58.2559C91.3721 58.4029 91.3091 58.6309 91.2281 58.8749C90.8701 60.0479 88.6881 65.7319 87.7431 67.9149L84.6131 59.5759ZM94.9381 68.1109L98.6361 57.9949C98.8301 57.4589 98.8941 57.3619 98.9901 57.3619C99.0911 57.3619 99.1531 57.4419 99.3511 57.9479C99.5961 58.5659 102.151 65.2939 103.144 67.7689C103.73 69.2169 104.205 69.4789 104.546 69.5759C104.791 69.6569 105.033 69.6749 105.196 69.6749C105.293 69.6749 105.36 69.6899 105.36 69.7729C105.36 69.8699 105.214 69.9019 105.033 69.9019C104.791 69.9019 103.6 69.9019 102.476 69.8699C102.165 69.8529 101.987 69.8529 101.987 69.7579C101.987 69.6909 102.038 69.6589 102.1 69.6439C102.197 69.6109 102.297 69.4629 102.197 69.2039L100.684 65.1969C100.653 65.1329 100.619 65.0979 100.537 65.0979H97.0371C96.9551 65.0979 96.9041 65.1489 96.8741 65.2299L95.8961 68.1119C95.7501 68.5179 95.6671 68.9109 95.6671 69.2039C95.6671 69.5289 96.0091 69.6769 96.2851 69.6769H96.4491C96.5611 69.6769 96.6111 69.7099 96.6111 69.7749C96.6111 69.8719 96.5141 69.9039 96.3671 69.9039C95.9751 69.9039 95.2771 69.8549 95.0961 69.8549C94.9161 69.8549 94.0231 69.9039 93.2571 69.9039C93.0461 69.9039 92.9451 69.8709 92.9451 69.7749C92.9451 69.7109 93.0111 69.6769 93.0921 69.6769C93.2081 69.6769 93.4341 69.6589 93.5661 69.6449C94.3171 69.5439 94.6421 68.9259 94.9381 68.1109ZM97.2171 64.5119H100.328C100.409 64.5119 100.409 64.4629 100.393 64.3979L98.8421 59.9999C98.7631 59.7559 98.6821 59.7559 98.6011 59.9999L97.1701 64.3979C97.1391 64.4779 97.1721 64.5119 97.2171 64.5119ZM110.277 62.3129C110.277 59.7719 110.277 59.3159 110.308 58.7939C110.339 58.2249 110.471 57.9479 110.945 57.8659C111.14 57.8339 111.367 57.8169 111.483 57.8169C111.545 57.8169 111.611 57.7839 111.611 57.7189C111.611 57.6199 111.529 57.5879 111.351 57.5879C110.864 57.5879 109.671 57.6379 109.592 57.6379C109.511 57.6379 108.484 57.5879 107.753 57.5879C107.573 57.5879 107.488 57.6199 107.488 57.7189C107.488 57.7829 107.554 57.8169 107.62 57.8169C107.768 57.8169 108.044 57.8339 108.176 57.8659C108.713 57.9789 108.842 58.2399 108.873 58.7939C108.908 59.3149 108.908 59.7719 108.908 62.3129V65.1799C108.908 66.7429 108.908 68.0299 108.826 68.7139C108.76 69.1879 108.679 69.5439 108.352 69.6099C108.205 69.6429 108.008 69.6749 107.862 69.6749C107.768 69.6749 107.732 69.7229 107.732 69.7739C107.732 69.8689 107.814 69.9019 107.994 69.9019C108.238 69.9019 108.597 69.8859 108.923 69.8699C109.247 69.8699 109.527 69.8539 109.592 69.8539C110.063 69.8539 110.569 69.8699 111.253 69.9019C111.937 69.9199 112.784 69.9529 113.959 69.9529C114.818 69.9529 114.868 69.8869 114.981 69.5129C115.11 69.0399 115.226 68.0629 115.226 67.8839C115.226 67.7049 115.21 67.6409 115.128 67.6409C115.031 67.6409 114.996 67.7209 114.981 67.8519C114.932 68.1609 114.768 68.5689 114.558 68.8289C114.168 69.3029 113.45 69.3179 112.586 69.3179C111.317 69.3179 110.894 69.2039 110.633 68.9429C110.338 68.6499 110.276 67.6069 110.276 65.2139L110.277 62.3129ZM118.577 68.1109C118.285 68.9249 117.959 69.5439 117.209 69.6419C117.08 69.6569 116.852 69.6739 116.738 69.6739C116.656 69.6739 116.593 69.7069 116.593 69.7719C116.593 69.8679 116.687 69.9009 116.9 69.9009C117.668 69.9009 118.561 69.8519 118.741 69.8519C118.92 69.8519 119.622 69.9009 120.012 69.9009C120.157 69.9009 120.257 69.8689 120.257 69.7719C120.257 69.7079 120.207 69.6739 120.091 69.6739H119.931C119.655 69.6739 119.312 69.5269 119.312 69.2009C119.312 68.9079 119.394 68.5149 119.539 68.1089L120.518 65.2269C120.549 65.1459 120.6 65.0949 120.681 65.0949H124.181C124.262 65.0949 124.298 65.1289 124.328 65.1939L125.841 69.2009C125.939 69.4609 125.841 69.6079 125.744 69.6409C125.679 69.6569 125.632 69.6879 125.632 69.7549C125.632 69.8509 125.811 69.8509 126.121 69.8669C127.245 69.8989 128.432 69.8989 128.677 69.8989C128.857 69.8989 129.004 69.8669 129.004 69.7699C129.004 69.6869 128.938 69.6719 128.839 69.6719C128.677 69.6719 128.432 69.6539 128.188 69.5729C127.845 69.4759 127.375 69.2149 126.788 67.7659C125.793 65.2899 123.237 58.5629 122.992 57.9449C122.798 57.4389 122.735 57.3589 122.635 57.3589C122.538 57.3589 122.472 57.4559 122.278 57.9919L118.577 68.1109ZM120.86 64.5119C120.809 64.5119 120.775 64.4779 120.809 64.3979L122.241 59.9999C122.323 59.7559 122.408 59.7559 122.489 59.9999L124.034 64.3979C124.049 64.4629 124.049 64.5119 123.971 64.5119H120.86ZM134.88 58.2899L134.881 65.1799C134.881 66.7429 134.881 68.0299 134.959 68.7129C135.01 69.1879 135.107 69.5439 135.593 69.6089C135.822 69.6419 136.18 69.6729 136.324 69.6729C136.422 69.6729 136.456 69.7219 136.456 69.7719C136.456 69.8519 136.375 69.9009 136.195 69.9009C135.3 69.9009 134.274 69.8519 134.193 69.8519C134.114 69.8519 133.088 69.9009 132.597 69.9009C132.422 69.9009 132.337 69.8679 132.337 69.7719C132.337 69.7219 132.371 69.6729 132.469 69.6729C132.613 69.6729 132.808 69.6419 132.955 69.6089C133.281 69.5439 133.363 69.1869 133.429 68.7129C133.511 68.0289 133.511 66.7419 133.511 65.1799V58.2899L131.1 58.3209C130.089 58.3379 129.701 58.4509 129.439 58.8419C129.257 59.1189 129.21 59.2339 129.163 59.3469C129.113 59.4769 129.063 59.5109 128.997 59.5109C128.95 59.5109 128.919 59.4609 128.919 59.3639C128.919 59.2009 129.241 57.8009 129.275 57.6709C129.307 57.5729 129.373 57.3619 129.439 57.3619C129.552 57.3619 129.716 57.5239 130.155 57.5559C130.626 57.6049 131.245 57.6379 131.442 57.6379H137.545C138.066 57.6379 138.441 57.6049 138.701 57.5559C138.946 57.5239 139.094 57.4749 139.159 57.4749C139.24 57.4749 139.24 57.5729 139.24 57.6699C139.24 58.1579 139.19 59.2809 139.19 59.4609C139.19 59.6079 139.142 59.6719 139.073 59.6719C138.992 59.6719 138.962 59.6239 138.946 59.3959L138.929 59.2169C138.879 58.7279 138.49 58.3529 136.927 58.3209L134.88 58.2899ZM143.881 65.1799C143.881 66.7429 143.881 68.0299 143.8 68.7129C143.737 69.1879 143.651 69.5439 143.328 69.6089C143.181 69.6419 142.985 69.6739 142.838 69.6739C142.741 69.6739 142.706 69.7219 142.706 69.7719C142.706 69.8679 142.791 69.9009 142.97 69.9009C143.215 69.9009 143.588 69.8689 143.911 69.8689C144.255 69.8519 144.53 69.8519 144.565 69.8519C144.81 69.8519 145.199 69.8689 145.836 69.9009C146.474 69.9179 147.368 69.9509 148.587 69.9509C149.225 69.9509 149.353 69.9509 149.469 69.5279C149.55 69.1869 149.679 68.0779 149.679 67.9479C149.679 67.8339 149.679 67.7039 149.581 67.7039C149.5 67.7039 149.469 67.7689 149.434 67.9479C149.322 68.6149 149.126 68.9419 148.704 69.1199C148.279 69.3009 147.56 69.3009 147.14 69.3009C145.542 69.3009 145.301 69.0889 145.25 67.9639C145.233 67.6219 145.25 65.7329 145.25 65.1799V63.7459C145.25 63.6809 145.285 63.6319 145.363 63.6319C145.642 63.6319 147.254 63.6639 147.692 63.7129C148.33 63.7789 148.473 64.0549 148.541 64.2829C148.605 64.4949 148.605 64.6579 148.605 64.8189C148.605 64.9019 148.637 64.9659 148.721 64.9659C148.831 64.9659 148.831 64.7869 148.831 64.6569C148.831 64.5429 148.866 63.9399 148.897 63.6139C148.948 63.0769 149.028 62.8009 149.028 62.7029C149.028 62.6039 148.997 62.5719 148.948 62.5719C148.881 62.5719 148.816 62.6519 148.703 62.7829C148.555 62.9459 148.329 62.9789 147.936 63.0119C147.559 63.0449 145.56 63.0449 145.346 63.0449C145.264 63.0449 145.248 62.9949 145.248 62.8819V58.3859C145.248 58.2719 145.283 58.2229 145.346 58.2229C145.525 58.2229 147.302 58.2389 147.577 58.2719C148.456 58.3699 148.619 58.5659 148.733 58.8259C148.814 59.0219 148.83 59.2989 148.83 59.4129C148.83 59.5429 148.865 59.6249 148.962 59.6249C149.027 59.6249 149.06 59.5269 149.075 59.4459C149.106 59.2509 149.14 58.5319 149.156 58.3699C149.207 57.9149 149.288 57.7189 149.288 57.6049C149.288 57.5229 149.272 57.4589 149.223 57.4589C149.141 57.4589 149.076 57.5239 148.996 57.5399C148.865 57.5729 148.603 57.6049 148.293 57.6199C147.919 57.6379 144.68 57.6379 144.564 57.6379L143.898 57.6059C143.538 57.5889 143.101 57.5889 142.724 57.5889C142.545 57.5889 142.463 57.6199 142.463 57.7189C142.463 57.7839 142.529 57.8179 142.592 57.8179C142.74 57.8179 143.016 57.8339 143.148 57.8669C143.685 57.9799 143.817 58.2399 143.848 58.7949C143.879 59.3159 143.879 59.7729 143.879 62.3139L143.881 65.1799Z" fill="#151515"/>
<path fill-rule="evenodd" clip-rule="evenodd" d="M85.9011 0.733887C92.1741 0.733887 97.8531 3.27589 101.961 7.38689C106.071 11.4979 108.616 17.1769 108.616 23.4489C108.616 29.7209 106.071 35.4009 101.961 39.5109C97.8531 43.6229 92.1741 46.1649 85.9011 46.1649C79.6281 46.1649 73.9501 43.6229 69.8391 39.5109C65.7271 35.4009 63.1851 29.7219 63.1851 23.4489C63.1851 17.1769 65.7271 11.4979 69.8391 7.38689C73.9501 3.27589 79.6281 0.733887 85.9011 0.733887ZM100.636 8.71489C96.8661 4.94289 91.6551 2.60989 85.9011 2.60989C80.1461 2.60989 74.9361 4.94289 71.1651 8.71489C67.3941 12.4849 65.0611 17.6939 65.0611 23.4489C65.0611 25.3379 65.3131 27.1699 65.7831 28.9099C67.9831 29.1429 70.1341 29.6119 72.1741 30.2909C70.9431 26.6979 70.1541 22.7289 69.8871 18.6539C69.8741 18.4679 69.9251 18.2779 70.0341 18.1119C70.3051 17.7089 70.8471 17.6019 71.2501 17.8709C74.7441 20.2059 77.8611 22.9599 80.3971 25.9149C81.0381 20.9309 82.6581 15.6739 85.1161 10.6899C85.3261 10.2549 85.8541 10.0769 86.2901 10.2919C86.4691 10.3799 86.6031 10.5219 86.6861 10.6899C89.1441 15.6739 90.7611 20.9309 91.4051 25.9159C93.9411 22.9599 97.0591 20.2069 100.552 17.8709C100.953 17.6029 101.5 17.7089 101.767 18.1119C101.88 18.2789 101.927 18.4679 101.914 18.6539C101.647 22.7289 100.859 26.6979 99.6291 30.2919C101.667 29.6119 103.82 29.1439 106.018 28.9099C106.489 27.1689 106.739 25.3379 106.739 23.4489C106.738 17.6939 104.406 12.4849 100.636 8.71489ZM66.3751 30.7509C67.4301 33.5689 69.0771 36.0979 71.1641 38.1849C73.9521 40.9719 77.5271 42.9749 81.5271 43.8299C78.9591 42.1169 76.7351 39.5659 74.9371 36.4489C74.2181 35.2029 73.5651 33.8659 72.9841 32.4559C70.9061 31.6369 68.6741 31.0589 66.3751 30.7509ZM90.2761 43.8279C94.2751 42.9739 97.8481 40.9729 100.636 38.1849C102.723 36.0969 104.367 33.5689 105.423 30.7509C103.122 31.0569 100.893 31.6359 98.8121 32.4559C98.2341 33.8649 97.5821 35.2009 96.8621 36.4459V36.4479C95.0641 39.5629 92.8431 42.1169 90.2761 43.8279ZM91.6421 28.3949C91.6891 29.1449 91.7131 29.8879 91.7131 30.6179C91.7131 32.0179 91.6251 33.3799 91.4461 34.6909C91.7621 34.4349 92.0871 34.1849 92.4231 33.9419C93.9481 32.8359 95.6481 31.8839 97.4641 31.1109C98.7301 27.8439 99.6001 24.1919 100.005 20.3909C96.7501 22.7629 93.8961 25.4989 91.6421 28.3949ZM90.8771 37.5769C90.3831 39.4569 89.6681 41.1939 88.7171 42.7339C91.3001 41.1959 93.5421 38.6949 95.3471 35.5689C95.7211 34.9199 96.0781 34.2439 96.4141 33.5449C95.3691 34.0859 94.3761 34.6949 93.4531 35.3629C92.5181 36.0419 91.6551 36.7799 90.8771 37.5769ZM83.0811 42.7329C82.1301 41.1909 81.4171 39.4559 80.9241 37.5759C80.1421 36.7799 79.2821 36.0419 78.3501 35.3639C77.4261 34.6959 76.4351 34.0879 75.3901 33.5459C75.7261 34.2449 76.0821 34.9209 76.4581 35.5699C78.2591 38.6949 80.5011 41.1939 83.0811 42.7329ZM80.3541 34.6889C80.1741 33.3789 80.0871 32.0169 80.0871 30.6179C80.0871 29.8849 80.1081 29.1439 80.1581 28.3929C77.9051 25.4979 75.0501 22.7619 71.7971 20.3909C72.2011 24.1909 73.0701 27.8449 74.3381 31.1109C76.1561 31.8849 77.8551 32.8349 79.3801 33.9419C79.7131 34.1849 80.0361 34.4319 80.3541 34.6889ZM89.8391 27.8639C89.4531 23.1169 88.0941 18.0299 85.9001 13.1389C83.7051 18.0279 82.3461 23.1159 81.9571 27.8609C82.7671 28.9379 83.4921 30.0329 84.1291 31.1379V31.1409C84.8301 32.3519 85.4231 33.5759 85.9011 34.8009C86.3791 33.5759 86.9701 32.3509 87.6711 31.1409V31.1379C88.3081 30.0339 89.0371 28.9379 89.8391 27.8639ZM81.8451 30.7629C81.8531 32.8589 82.0741 34.8569 82.5161 36.7019C83.3291 37.5729 84.0541 38.5079 84.6721 39.4969C84.7501 38.9009 84.8571 38.3019 84.9991 37.6989C84.5151 35.8169 83.7031 33.9049 82.6141 32.0179C82.3681 31.5979 82.1141 31.1789 81.8451 30.7629ZM89.2821 36.7039C89.7241 34.8579 89.9431 32.8609 89.9571 30.7639C89.6861 31.1819 89.4291 31.5979 89.1901 32.0179H89.1861C88.0971 33.9049 87.2851 35.8169 86.8041 37.6989C86.9421 38.3019 87.0521 38.9019 87.1271 39.4979C87.7461 38.5079 88.4711 37.5749 89.2821 36.7039Z" fill="#151515"/>
</g>
</svg>
