<svg width="80" height="79" viewBox="0 0 80 79" fill="none" xmlns="http://www.w3.org/2000/svg">
<g clip-path="url(#clip0_604_190)">
<path fill-rule="evenodd" clip-rule="evenodd" d="M18.7761 44.2962H15.423V33.9202H18.7761C21.1248 33.9721 23.0849 36.5415 23.0849 39.1077C23.0849 41.6583 21.1501 44.2421 18.7761 44.2962ZM4.16959 38.6297V39.5878C4.16959 49.9207 9.18152 58.6852 14.3656 63.8704C19.5343 69.0391 28.2911 74.2265 38.5688 74.2265H40.0059C50.1853 74.2265 59.0128 69.0667 64.1274 63.9488C69.2475 58.8298 74.4051 50.0123 74.4051 39.8273V38.3903C74.4051 28.2108 69.2452 19.3833 64.1274 14.2676C59.0106 9.14973 50.1853 3.9899 40.0059 3.9899H38.9684C20.1049 3.9899 4.16959 19.8204 4.16959 38.6297ZM0.179688 40.0656C0.179688 51.2782 5.97526 61.0648 11.6119 66.7036C14.4108 69.5015 18.8621 72.9882 22.8134 74.5764C25.1908 75.5322 27.0969 76.4119 29.8043 77.0829C32.0735 77.6458 35.4254 78.2153 38.1693 78.2153H40.1647C51.5771 78.2153 61.2257 72.518 66.9616 66.7831C72.6976 61.0472 78.3939 51.3997 78.3939 39.9862V37.9907C78.3939 32.0174 76.543 26.7925 74.7484 22.562C73.0575 18.5732 69.742 14.2952 66.8812 11.4333C61.2445 5.79446 51.4579 0 40.2453 0H38.3305C27.1201 0 17.3302 5.87393 11.6925 11.5128C8.26766 14.9376 6.11322 18.1582 3.82413 22.7198C1.99198 26.3698 0.179688 32.7105 0.179688 38.1508V40.0656ZM39.2719 31.6643L36.5159 29.3443L26.8607 36.8252C26.14 33.8077 22.8641 30.4094 19.2539 30.4094H11.592V47.5687H19.2539C20.9448 47.5687 23.3653 46.38 24.2228 45.5136C25.5539 44.1659 26.3298 43.3602 26.8365 41.1837L36.5236 48.5664L46.2109 41.1583L46.2297 47.5687H57.2436V44.0567H49.9812V30.4083H45.9901V36.7126C45.9901 36.9356 37.6638 43.7256 36.8129 44.2962L34.8858 42.6318L44.0245 35.3937L41.2817 33.1233C40.2167 33.8352 32.3031 40.3041 32.0238 40.3041C31.9973 40.3041 30.2204 38.7158 30.1354 38.5834L39.2719 31.6643ZM58.6817 47.5687V30.4083H62.7521V44.0567H69.6955V47.5687H58.6817Z" fill="#151515"/>
</g>
<defs>
<clipPath id="clip0_604_190">
<rect width="79" height="79" fill="white" transform="translate(0.179688)"/>
</clipPath>
</defs>
</svg>
