<svg width="157" height="37" viewBox="0 0 157 37" fill="none" xmlns="http://www.w3.org/2000/svg">
<g clip-path="url(#clip0_604_85)">
<path fill-rule="evenodd" clip-rule="evenodd" d="M17.1543 35.5239H18.6583V1.54935H17.1543V35.5239ZM-14.4233 22.694V7.24369H-12.2746V1.55854H-23.023V7.24369H-20.9279V20.7735C-20.9279 26.4433 -21.5834 29.1679 -25.6558 29.1679C-29.7282 29.1679 -30.3822 26.4433 -30.3822 20.7735V7.24369H-28.3023V1.55854H-39.0676V7.24369H-36.9357V22.694C-36.9357 26.0681 -36.9357 28.8341 -35.3444 31.3167C-33.5663 34.1302 -30.3362 35.9175 -25.6558 35.9175C-17.37 35.916 -14.4233 31.6001 -14.4233 22.694ZM-2.76359 29.8005V21.1043H5.24951V15.3686H-2.76359V7.24522H6.03521V10.3987H11.8398V1.56007H-11.4V7.24522H-9.22369V29.8005H-11.3924V35.5362H-0.668392V29.8005H-2.76359ZM24.1781 2.15279C24.2638 2.21711 24.3174 2.27225 24.3389 2.31819C24.3772 2.40243 24.4032 2.53874 24.4155 2.72559C24.4369 3.2019 24.4476 3.73489 24.4476 4.32913V5.94646L24.4415 7.16864C24.4415 7.83946 24.4537 8.25145 24.4737 8.40308C24.5028 8.64966 24.5855 8.90543 24.7218 9.17039C24.8565 9.43535 25.0541 9.6758 25.313 9.89022C25.5718 10.1046 25.9057 10.2746 26.3131 10.4018C26.8736 10.5748 27.4755 10.6621 28.1218 10.6621C28.6732 10.6621 29.1602 10.6024 29.5799 10.4829C29.9995 10.3635 30.3625 10.1889 30.6688 9.95454C30.9736 9.72175 31.211 9.45985 31.3795 9.17192C31.5464 8.88399 31.6582 8.53479 31.7118 8.1274C31.7685 7.72 31.796 7.32486 31.796 6.9435V5.44717C31.796 5.00608 31.8098 4.40112 31.8389 3.6384C31.868 2.87415 31.8971 2.44531 31.9293 2.34883C31.9614 2.25234 32.0028 2.18955 32.0549 2.15585C32.1559 2.09153 32.4041 2.06089 32.7992 2.06089V1.53404L31.3856 1.57386C31.309 1.57692 31.2523 1.57999 31.214 1.57999C31.0701 1.57999 30.6137 1.56467 29.8448 1.53404V2.05783C30.3165 2.07008 30.6198 2.11297 30.7607 2.18495C30.8281 2.21864 30.8771 2.27072 30.9077 2.33811C30.9537 2.44838 30.9843 2.77154 30.9966 3.30452C31.0012 3.5511 31.0042 4.23571 31.0042 5.35527V6.65404C31.0042 7.55919 30.9292 8.17181 30.7806 8.49497C30.632 8.8166 30.3824 9.08003 30.0317 9.28219C29.6809 9.48283 29.2108 9.58544 28.6226 9.58544C28.1096 9.58544 27.6853 9.51039 27.3514 9.35877C27.0191 9.20714 26.771 9.00957 26.6102 8.76606C26.4478 8.52254 26.3498 8.19938 26.3115 7.80117C26.2947 7.61739 26.2855 7.13954 26.2855 6.36151L26.2794 5.61564V4.13922C26.2794 3.24479 26.3069 2.66433 26.3651 2.4009C26.3866 2.29063 26.4279 2.21558 26.4922 2.17729C26.6163 2.09612 26.9073 2.0563 27.3683 2.0563V1.53097L27.1309 1.53863L26.2717 1.56161L25.411 1.57692L23.3388 1.53097V2.05477L24.1781 2.15279ZM35.4963 10.4462C36.2039 10.414 36.7644 10.3987 37.1779 10.3987C37.2897 10.3987 37.7477 10.4064 38.5548 10.4217V9.90554C38.4935 9.91013 38.4522 9.91166 38.4277 9.91166C38.3006 9.91166 38.0999 9.89481 37.8242 9.85959C37.7216 9.84734 37.6496 9.82589 37.6098 9.79373C37.57 9.76157 37.5409 9.72175 37.5241 9.66968C37.4919 9.564 37.4643 9.26381 37.4475 8.77065C37.4169 8.05848 37.4015 7.37234 37.4015 6.71377V3.54497C39.9164 6.61422 41.8599 8.91309 43.2291 10.4462C43.5998 10.4952 43.9627 10.5503 44.3211 10.6101L44.4054 10.5534C44.3472 9.94995 44.3181 8.23767 44.3181 5.41501C44.3181 5.05509 44.3272 4.49607 44.3456 3.73795C44.364 2.97983 44.4054 2.49433 44.4697 2.28297C44.4819 2.24162 44.5049 2.20792 44.5401 2.18801C44.6366 2.12369 44.946 2.0854 45.4637 2.07315V1.54016C44.802 1.57233 44.2614 1.58611 43.8417 1.58611C43.4083 1.58611 42.9335 1.57079 42.4159 1.54016V2.07315C42.981 2.0808 43.3118 2.12369 43.4083 2.20027C43.468 2.24774 43.5063 2.34883 43.5232 2.50658C43.5752 2.90938 43.5998 4.25409 43.5998 6.53764V8.00947C43.0101 7.40297 42.2688 6.56214 41.3744 5.48852C40.1308 3.99831 39.074 2.68271 38.1995 1.54016L37.6144 1.56314L36.6909 1.58611C36.4351 1.58611 36.0384 1.57079 35.5009 1.54016V2.07315C35.9496 2.10378 36.2207 2.13135 36.3141 2.15738C36.4075 2.18189 36.4734 2.21864 36.5148 2.26C36.5546 2.30594 36.5837 2.37486 36.6067 2.46829C36.6281 2.56171 36.6388 2.76235 36.6449 3.07325L36.6771 4.92644V6.96954C36.6771 7.53468 36.6679 7.99262 36.6495 8.34488C36.6158 8.96363 36.5852 9.35571 36.5592 9.51652C36.5362 9.63598 36.5102 9.71409 36.478 9.75238C36.4458 9.79067 36.4076 9.81824 36.3601 9.83662C36.2881 9.85806 36.0017 9.88103 35.4993 9.90554L35.4963 10.4462ZM50.1671 1.58611C49.4748 1.58611 48.8607 1.57079 48.3277 1.54016V2.10378C48.7871 2.12062 49.0552 2.139 49.1287 2.15738C49.2022 2.17729 49.2527 2.2018 49.2803 2.2309C49.3079 2.26 49.3278 2.30288 49.34 2.35802C49.3707 2.49433 49.3952 2.83127 49.4151 3.37038C49.4273 3.61236 49.4319 4.15453 49.4319 4.99842V7.65721C49.4319 8.09064 49.4136 8.56083 49.3768 9.06777C49.3554 9.41697 49.3385 9.61454 49.3278 9.66661C49.3186 9.7049 49.2987 9.7386 49.2665 9.7677C49.2344 9.79833 49.1746 9.8213 49.0858 9.83815C49.0199 9.85193 48.7657 9.86572 48.3277 9.88256V10.4477C48.8622 10.4155 49.4717 10.4002 50.1548 10.4002C50.939 10.4002 51.6787 10.4155 52.3695 10.4477V9.88103C51.9498 9.87337 51.6971 9.85806 51.6067 9.83815C51.5194 9.81977 51.4551 9.79526 51.4153 9.7631C51.3755 9.73094 51.3464 9.68499 51.328 9.62679C51.2851 9.49661 51.2637 9.21174 51.2637 8.77525L51.2484 7.61279V5.04896C51.2484 4.96779 51.2575 4.40571 51.2759 3.36272C51.279 3.05794 51.2866 2.84965 51.2958 2.73784C51.3081 2.53414 51.328 2.3963 51.3602 2.32432C51.3724 2.28297 51.3954 2.24774 51.4291 2.21865C51.4628 2.19108 51.521 2.1681 51.6006 2.14819C51.6818 2.12981 51.9376 2.11297 52.3679 2.10071V1.5371C51.6787 1.57079 50.9436 1.58611 50.1671 1.58611ZM60.332 10.4937C60.5909 9.7677 61.0841 8.53173 61.8141 6.78575L62.6741 4.73806L63.1251 3.68281C63.4901 2.80829 63.7301 2.32739 63.8451 2.24009C63.9111 2.18801 64.1531 2.1436 64.5651 2.10531V1.54016L63.1911 1.58611L61.5741 1.54016V2.10531C61.7671 2.10837 61.9981 2.12369 62.2751 2.14973C62.3981 2.15738 62.4731 2.1681 62.5041 2.18189C62.5401 2.19873 62.5731 2.22477 62.5971 2.26153C62.6191 2.29675 62.6311 2.35189 62.6311 2.42387C62.6311 2.47595 62.6261 2.52649 62.6171 2.57703C62.5761 2.75009 62.4581 3.09316 62.2661 3.60011C61.9981 4.32147 61.8501 4.72274 61.8141 4.80238L60.3979 8.30659L58.7882 4.37814C58.7714 4.33066 58.7591 4.29084 58.7469 4.26021C58.7377 4.22805 58.6504 4.01822 58.4911 3.62615C58.2108 2.94767 58.0699 2.54487 58.0699 2.41775C58.0699 2.35342 58.0883 2.30288 58.1251 2.26306C58.1603 2.22171 58.2246 2.19107 58.318 2.16963C58.4773 2.13134 58.7377 2.11143 59.0945 2.10531V1.54016L56.8094 1.58764C56.5889 1.58764 55.9702 1.57233 54.9517 1.54169V2.10531C55.3499 2.1145 55.6133 2.15126 55.7404 2.22018C55.8247 2.26765 55.9502 2.45297 56.1126 2.77766C56.2765 3.10235 56.713 4.11012 57.4205 5.80249L58.3242 7.95739C58.6565 8.7584 58.9996 9.60535 59.3625 10.4952L60.332 10.4937ZM69.5411 10.391C69.9211 10.391 70.6181 10.3987 71.6261 10.414L72.6501 10.437C73.1501 10.437 73.5351 10.4201 73.8071 10.3895L73.8891 10.3053C73.8891 9.7631 73.9341 9.0739 74.0271 8.23461H73.5051C73.4181 8.80128 73.3381 9.18723 73.2631 9.3894C73.2371 9.44913 73.2111 9.48742 73.1791 9.50427C73.0911 9.5594 72.8541 9.60229 72.4661 9.63139C72.0811 9.66202 71.6581 9.6758 71.2031 9.6758C70.7331 9.6758 70.3281 9.66049 69.9851 9.62832C69.9751 9.41391 69.9681 9.15967 69.9681 8.86101V6.19916C70.2381 6.16853 70.5781 6.15169 70.9931 6.15169C71.4561 6.15169 71.8321 6.17619 72.1281 6.22061C72.2601 6.24205 72.3521 6.29565 72.4041 6.37989C72.4711 6.49475 72.5031 6.79647 72.5001 7.28657H73.0161L72.9861 5.89438L73.0161 4.49607H72.5001C72.4911 4.87284 72.4631 5.14239 72.4111 5.3032C72.3901 5.36753 72.3591 5.41194 72.3181 5.43645C72.2781 5.46249 72.1451 5.47627 71.9171 5.48086C71.3121 5.49771 70.9641 5.50537 70.8661 5.50537C70.5541 5.50537 70.2551 5.49465 69.9671 5.47474V4.16526C69.9671 3.42245 69.9961 2.80983 70.0541 2.32738C70.4481 2.29675 70.8321 2.27991 71.2081 2.27991C71.6091 2.27991 72.0191 2.30288 72.4391 2.35036C72.7221 2.37946 72.8911 2.41468 72.9461 2.45297C72.9801 2.47748 73.0061 2.52036 73.0211 2.58009C73.0521 2.69496 73.0701 3.00127 73.0791 3.50362H73.5721C73.6091 2.95532 73.6321 2.64901 73.6351 2.58469L73.7561 1.66575L73.7121 1.58152C73.6151 1.55395 73.5451 1.54016 73.5031 1.54016C73.0361 1.52332 72.7271 1.51566 72.5741 1.51566L71.2831 1.54782C70.5701 1.5616 69.9241 1.56773 69.3421 1.56773C69.0761 1.56773 68.7971 1.56773 68.5031 1.56926L67.0281 1.58152V2.07621C67.5261 2.10071 67.8341 2.139 67.9481 2.18954C67.9901 2.21099 68.0231 2.24315 68.0451 2.28603C68.0911 2.39171 68.1211 2.68424 68.1351 3.16361C68.1441 3.88038 68.1511 4.29391 68.1511 4.40418V7.26666C68.1511 7.59748 68.1321 8.12893 68.0981 8.85795C68.0821 9.25462 68.0601 9.54562 68.0341 9.72328C67.8751 9.8504 67.6681 9.97446 67.4171 10.0924V10.437C68.7291 10.4064 69.4391 10.391 69.5411 10.391ZM77.9101 2.19107C77.9511 2.21711 77.9831 2.25234 78.0051 2.29982C78.0461 2.40549 78.0721 2.72406 78.0811 3.25398L78.1131 4.59715V6.95882L78.0581 8.8166C78.0441 9.15201 78.0261 9.40319 77.9941 9.56859C77.9821 9.65896 77.9651 9.71715 77.9421 9.74778C77.9191 9.77688 77.8821 9.79986 77.8331 9.81058C77.7431 9.83968 77.4581 9.86418 76.9771 9.88103V10.4462C77.5411 10.414 78.1551 10.3987 78.8131 10.3987C79.5531 10.3987 80.2901 10.414 81.0141 10.4462V9.88103C80.6071 9.87337 80.3601 9.85959 80.2771 9.84274C80.1901 9.82436 80.1301 9.80292 80.0921 9.77535C80.0541 9.74779 80.0261 9.71715 80.0081 9.68346C79.9761 9.61148 79.9511 9.45526 79.9371 9.21787C79.9301 9.09841 79.9161 8.60218 79.9041 7.72613C79.8911 7.01395 79.8841 6.33854 79.8841 5.69988C79.8841 5.29708 79.8981 4.49454 79.9221 3.29227C79.9361 2.75775 79.9501 2.41468 79.9601 2.26306C80.1591 2.22937 80.3621 2.21252 80.5651 2.21252C81.0251 2.21252 81.3401 2.24468 81.5201 2.30747C81.7941 2.41009 82.0261 2.59081 82.2101 2.84965C82.3991 3.10848 82.4911 3.4347 82.4911 3.82525C82.4911 4.2112 82.4021 4.56346 82.2221 4.87437C82.0451 5.18834 81.8261 5.40582 81.5671 5.52681C81.3081 5.6478 80.9241 5.69988 80.4151 5.68303L80.3451 5.89132C80.4731 5.98628 80.6041 6.12412 80.7401 6.3125C81.0111 6.6816 81.3431 7.19008 81.7321 7.83487L83.0941 10.0832C83.1751 10.2318 83.2261 10.3528 83.2471 10.4462C83.5831 10.4293 83.9191 10.4217 84.2591 10.4217C84.5521 10.4217 85.0251 10.4293 85.6791 10.4462V9.88103C85.4801 9.87797 85.3471 9.85959 85.2791 9.83049C85.2111 9.80139 85.1391 9.74778 85.0681 9.67274C84.9961 9.59616 84.8001 9.34958 84.4821 8.92687C84.4621 8.89624 84.3191 8.68641 84.0561 8.29587L83.0691 6.82404C83.0431 6.78575 83.0191 6.74593 82.9961 6.70458C82.9711 6.66169 82.8921 6.54223 82.7571 6.34466C82.6211 6.14709 82.5001 5.95411 82.3961 5.7642C83.0561 5.51762 83.5441 5.18527 83.8641 4.76409C84.1811 4.34291 84.3421 3.87579 84.3421 3.36272C84.3421 2.92929 84.2261 2.56324 83.9911 2.26C83.7571 1.95675 83.4751 1.75918 83.1461 1.66422C82.8151 1.56773 82.3161 1.52025 81.6511 1.52025C81.3051 1.52025 80.8721 1.53097 80.3461 1.55548C80.0291 1.57386 79.6481 1.58305 79.2011 1.58305C78.6781 1.58305 78.2761 1.57845 77.9921 1.56773C77.4121 1.54629 77.0721 1.5371 76.9751 1.5371V2.06089C77.4981 2.09765 77.8101 2.139 77.9101 2.19107ZM94.3451 2.82208C94.3711 2.55712 94.4141 2.28757 94.4731 2.01188L94.4211 1.86026C94.1121 1.7071 93.7441 1.59224 93.3231 1.51107C92.9011 1.43142 92.4641 1.39007 92.0141 1.39007C91.5801 1.39007 91.1561 1.43755 90.7461 1.53404C90.3351 1.63053 89.9661 1.78828 89.6381 2.00882C89.3121 2.22936 89.0491 2.54027 88.8501 2.94154C88.6501 3.34281 88.5491 3.7793 88.5491 4.25408C88.5491 4.59409 88.6041 4.91113 88.7151 5.20672C88.8241 5.50078 88.9941 5.75195 89.2141 5.96024C89.4381 6.16853 89.7321 6.32628 90.0961 6.43809C90.3381 6.5116 90.8441 6.62647 91.6121 6.78881C92.1491 6.91134 92.5211 7.0308 92.7321 7.14414C92.9451 7.259 93.1001 7.41216 93.2011 7.6036C93.3021 7.79505 93.3511 8.02325 93.3511 8.29127C93.3511 8.60984 93.2791 8.89471 93.1361 9.14588C92.9941 9.39706 92.7661 9.59157 92.4471 9.734C92.1331 9.87644 91.7731 9.94842 91.3691 9.94842C90.9061 9.94842 90.4791 9.84734 90.0901 9.64823C89.6961 9.4476 89.4221 9.21633 89.2621 8.95291C89.2061 8.49803 89.1821 8.11668 89.1911 7.80883H88.6581C88.6521 8.79822 88.5881 9.53337 88.4541 10.0189C88.9411 10.2563 89.3891 10.4232 89.7961 10.5228C90.2051 10.6192 90.6691 10.6683 91.1901 10.6683C91.9031 10.6683 92.5131 10.5672 93.0231 10.3635C93.3421 10.2364 93.6511 10.0449 93.9511 9.78761C94.2511 9.5303 94.4871 9.24697 94.6591 8.93759C94.8821 8.5256 94.9961 8.04929 94.9961 7.50558C94.9961 7.19468 94.9561 6.91747 94.8731 6.66935C94.7941 6.41971 94.6911 6.21448 94.5671 6.05213C94.4411 5.88979 94.2731 5.74429 94.0601 5.6187C93.8491 5.49312 93.5731 5.38744 93.2271 5.29861C93.0951 5.26798 92.8121 5.2159 92.3711 5.13933C91.9301 5.06275 91.5901 4.99842 91.3441 4.94788C91.0211 4.86211 90.7781 4.76869 90.6111 4.66607C90.4471 4.56499 90.3201 4.42715 90.2311 4.25255C90.1411 4.07796 90.0931 3.85129 90.0901 3.57101C90.0901 3.18046 90.2491 2.83893 90.5651 2.54793C90.8831 2.25693 91.3291 2.11143 91.9071 2.11143C92.3111 2.11143 92.6771 2.18342 93.0021 2.32738C93.3251 2.47135 93.5541 2.63829 93.6861 2.82361C93.7201 3.02731 93.7411 3.37497 93.7491 3.8666H94.2821C94.2971 3.43317 94.3171 3.08551 94.3451 2.82208ZM99.9981 1.58611C99.3071 1.58611 98.6911 1.57079 98.1581 1.54016V2.10378C98.6181 2.12062 98.8861 2.139 98.9581 2.15738C99.0331 2.17729 99.0831 2.2018 99.1111 2.2309C99.1391 2.26 99.1581 2.30288 99.1721 2.35802C99.2011 2.49433 99.2261 2.83127 99.2471 3.37038C99.2581 3.61236 99.2641 4.15453 99.2641 4.99842V7.65721C99.2641 8.09064 99.2461 8.56083 99.2091 9.06777C99.1881 9.41697 99.1721 9.61454 99.1581 9.66661C99.1491 9.7049 99.1291 9.7386 99.0971 9.7677C99.0651 9.79833 99.0051 9.8213 98.9181 9.83815C98.8511 9.85193 98.5961 9.86572 98.1581 9.88256V10.4477C98.6941 10.4155 99.3041 10.4002 99.9861 10.4002C100.77 10.4002 101.508 10.4155 102.2 10.4477V9.88103C101.782 9.87337 101.528 9.85806 101.439 9.83815C101.35 9.81977 101.287 9.79526 101.246 9.7631C101.208 9.73094 101.177 9.68499 101.16 9.62679C101.117 9.49661 101.096 9.21174 101.096 8.77525L101.081 7.61279V5.04896C101.081 4.96779 101.09 4.40571 101.107 3.36272C101.113 3.05794 101.119 2.84965 101.13 2.73784C101.142 2.53414 101.162 2.3963 101.192 2.32432C101.206 2.28297 101.226 2.24774 101.261 2.21865C101.297 2.19108 101.353 2.1681 101.434 2.14819C101.516 2.12981 101.77 2.11297 102.202 2.10071L102.2 1.5371C101.506 1.57079 100.771 1.58611 99.9981 1.58611ZM108.838 10.391C109.403 10.391 110.098 10.4094 110.922 10.4462V9.92238C110.411 9.90554 110.106 9.87031 110.008 9.8167C109.91 9.7631 109.847 9.68193 109.817 9.57166C109.771 9.38481 109.748 8.83498 109.748 7.91757L109.746 4.10552C109.746 3.09163 109.752 2.50964 109.768 2.36108H110.677C111.166 2.36108 111.584 2.37946 111.93 2.41315C112.04 2.42081 112.111 2.43613 112.135 2.45757C112.164 2.48667 112.194 2.57856 112.218 2.73019C112.267 3.03037 112.293 3.34587 112.302 3.67669H112.826C112.838 2.78226 112.849 2.31666 112.852 2.28297C112.861 2.08846 112.883 1.86179 112.921 1.60143L112.858 1.5371C112.659 1.55854 112.46 1.57233 112.267 1.57999C111.906 1.59377 111.192 1.59989 110.123 1.59989H107.554C106.516 1.59989 105.815 1.59377 105.45 1.57999C105.225 1.57233 105.014 1.55854 104.815 1.5371L104.759 1.59989C104.788 1.81738 104.808 2.01801 104.822 2.20486C104.827 2.31513 104.837 2.80523 104.854 3.67362H105.378C105.387 3.30605 105.419 2.97217 105.475 2.67505C105.496 2.55099 105.519 2.47901 105.55 2.45297C105.573 2.43153 105.652 2.41468 105.793 2.4009C106.141 2.3718 106.544 2.35649 107.003 2.35649H107.916C107.927 2.48054 107.933 3.05947 107.933 4.10093V7.91298C107.933 8.82885 107.908 9.37868 107.862 9.56093C107.829 9.6804 107.763 9.7631 107.668 9.81517C107.571 9.86725 107.27 9.89941 106.758 9.91779V10.4431C107.539 10.4094 108.234 10.391 108.838 10.391ZM119.262 3.99219C118.955 3.39335 118.649 2.86649 118.338 2.40856C118.13 2.09765 117.968 1.88783 117.848 1.77449C117.732 1.66269 117.542 1.53404 117.284 1.39007C117.042 1.4544 116.805 1.51106 116.578 1.56161L115.228 1.8281V2.30747C115.546 2.30747 115.735 2.31973 115.788 2.34423C115.878 2.39171 116.029 2.52955 116.241 2.75775C116.558 3.10695 116.903 3.56795 117.271 4.14381C117.726 4.85139 118.153 5.57123 118.551 6.30025C118.71 6.60503 118.793 6.80566 118.793 6.90521V8.11361C118.793 8.45209 118.781 8.86408 118.761 9.34805C118.749 9.5594 118.727 9.68652 118.695 9.72941C118.663 9.77076 118.606 9.80292 118.523 9.82436C118.441 9.84581 118.157 9.86418 117.672 9.88103V10.4462C118.326 10.414 118.971 10.3987 119.606 10.3987C120.259 10.3987 120.991 10.4155 121.803 10.4462V9.88103C121.328 9.87337 121.049 9.85653 120.959 9.83049C120.868 9.80598 120.806 9.76616 120.767 9.71562C120.73 9.66508 120.695 9.51652 120.669 9.26994C120.64 9.02336 120.629 8.63128 120.629 8.09217V7.01855C120.629 6.798 120.639 6.63872 120.658 6.5407C120.689 6.40439 120.752 6.24664 120.844 6.06439C120.985 5.79637 121.352 5.19599 121.948 4.26174C122.545 3.32902 123.098 2.51577 123.613 1.82503L123.614 1.53863H122.608C122.55 1.66269 122.401 1.92612 122.17 2.33351C121.501 3.51894 121.1 4.22958 120.963 4.46391L120.161 5.76114C120.055 5.53906 119.758 4.95094 119.262 3.99219ZM37.1978 21.697H35.8654C35.8455 22.596 35.7903 23.1688 35.7 23.4231C35.6387 23.6145 35.5438 23.7309 35.412 23.7707C35.069 23.8917 34.245 23.9545 32.934 23.9545C32.4791 23.9545 31.6077 23.9193 30.3181 23.8488V21.7384C30.3181 19.1133 30.3763 17.2999 30.4896 16.2937C30.773 16.2753 31.3075 16.2523 32.087 16.2263C32.8712 16.1987 33.3475 16.1865 33.5206 16.1865C34.4089 16.1865 35.1838 16.2447 35.8455 16.3595C36.5071 16.4759 36.9298 16.5939 37.1121 16.7133C37.1733 16.7439 37.2162 16.793 37.2484 16.8634C37.2882 16.9538 37.3188 17.2203 37.3403 17.6598C37.3908 18.5052 37.4153 19.0459 37.4153 19.2879L38.6544 19.2863C38.6635 18.6186 38.7095 17.8421 38.7891 16.9507C38.8703 16.0593 38.9653 15.3257 39.0771 14.7483L38.9392 14.5354C38.0295 14.4344 37.0615 14.3838 36.0385 14.3838L28.736 14.5247L23.3449 14.416V15.6856C24.3236 15.7469 24.9224 15.802 25.1414 15.8526C25.3604 15.9031 25.5029 15.9567 25.5703 16.0119C25.6376 16.067 25.6851 16.1512 25.7157 16.2615C25.8076 16.5862 25.8643 17.1391 25.8842 17.9186C25.9792 20.6142 26.0251 22.0339 26.0251 22.1733V28.4634C26.0251 29.001 25.9991 29.8847 25.947 31.1146C25.8934 32.3475 25.8521 33.078 25.8214 33.3108C25.7693 33.7151 25.6989 33.9801 25.6055 34.1011C25.5457 34.1838 25.4692 34.2389 25.3788 34.268C25.195 34.34 24.5165 34.386 23.3449 34.4059V35.6587C25.2119 35.5852 26.5749 35.55 27.4372 35.55L33.4026 35.6587V34.4518C31.9967 34.3523 31.2018 34.268 31.0195 34.2022C30.8373 34.1379 30.7117 34.049 30.6397 33.9357C30.5402 33.7764 30.459 33.2113 30.4023 32.2448C30.3457 31.28 30.315 29.5983 30.315 27.2045V25.5198C30.8893 25.5091 31.2937 25.5029 31.5249 25.5029C33.1361 25.5029 34.3155 25.5703 35.0613 25.7005C35.3538 25.7618 35.5346 25.8582 35.605 25.9884C35.7459 26.2503 35.8317 27.0146 35.8608 28.275H37.1948C37.1978 25.6086 37.1978 23.4139 37.1978 21.697ZM45.6474 35.5147C46.3029 35.5147 47.4669 35.5362 49.1363 35.576C51.3295 35.6281 52.518 35.6541 52.7003 35.6541C53.9944 35.6541 54.9501 35.6281 55.5689 35.576C55.8614 35.5438 56.1555 35.4872 56.448 35.4045C56.4572 35.213 56.5047 34.6356 56.5843 33.6738L56.9657 30.6091C56.9657 30.5586 56.981 30.3917 57.0116 30.1083H55.7588C55.5674 31.1038 55.3698 31.9906 55.1661 32.761C55.0742 33.0642 54.9884 33.2541 54.9088 33.3246C54.8276 33.3966 54.578 33.4624 54.1629 33.5222C53.0188 33.7014 51.6772 33.7902 50.138 33.7902C49.6326 33.7902 48.6784 33.755 47.2831 33.6814C47.2724 33.3782 47.2632 32.5144 47.2586 31.0946C47.254 29.6718 47.2464 28.2398 47.2357 26.791C47.2265 24.0495 47.2204 22.5868 47.2204 22.4061C47.2204 20.7061 47.2433 19.2986 47.2908 18.1867C47.3368 17.0732 47.3858 16.4484 47.4363 16.312C47.4868 16.1757 47.568 16.0762 47.6783 16.0165C47.931 15.8847 48.6294 15.7944 49.7719 15.7423V14.4114C48.1224 14.4849 46.378 14.5201 44.5371 14.5201C42.8876 14.5201 41.4203 14.4834 40.1369 14.4114V15.7423C41.4556 15.7928 42.2336 15.8955 42.4664 16.0471C42.5782 16.1083 42.6548 16.1987 42.6946 16.3197C42.7865 16.5923 42.8493 17.6813 42.883 19.585C42.8998 20.3339 42.909 22.3066 42.909 25.506C42.909 27.6823 42.8876 29.5478 42.8462 31.1008C42.8033 32.6568 42.7574 33.5574 42.7069 33.8116C42.6977 33.8729 42.6732 33.928 42.6333 33.9786C42.5721 34.0613 42.4358 34.1608 42.2244 34.2818C41.7512 34.5667 41.3851 34.7612 41.1232 34.8761V35.6556C43.1479 35.5622 44.655 35.5147 45.6474 35.5147ZM58.7392 31.2983C59.6704 32.908 60.9521 34.1256 62.5861 34.9496C64.2171 35.7751 66.1731 36.1886 68.4491 36.1886C70.5541 36.1886 72.4251 35.8486 74.0621 35.1701C75.2551 34.6632 76.3211 33.9403 77.2571 32.9984C78.1931 32.058 78.9041 30.9798 79.3891 29.7653C80.0481 28.1372 80.3751 26.3683 80.3751 24.4661C80.3751 23.3434 80.2621 22.3158 80.0341 21.3846C79.8061 20.4549 79.4701 19.5988 79.0251 18.8177C78.5791 18.0381 77.9301 17.2769 77.0751 16.5326C76.2201 15.7883 75.2391 15.22 74.1271 14.8234C72.6271 14.3088 70.9591 14.0499 69.1171 14.0499C67.2671 14.0499 65.5591 14.3195 63.9891 14.854C62.7641 15.2798 61.6341 15.9736 60.5924 16.9339C59.5463 17.8957 58.7469 19.0643 58.1863 20.4427C57.6258 21.818 57.344 23.4323 57.344 25.2839C57.3424 27.6869 57.808 29.6902 58.7392 31.2983ZM62.7181 19.879C63.1901 18.5206 63.9431 17.4929 64.9801 16.7991C66.0191 16.1053 67.2761 15.7561 68.7541 15.7561C70.0501 15.7561 71.0881 15.9751 71.8721 16.4101C72.6561 16.8466 73.3381 17.476 73.9151 18.3031C74.4911 19.1301 74.9341 20.1317 75.2421 21.3065C75.5531 22.4827 75.7061 23.7815 75.7061 25.1997C75.7061 27.2703 75.4191 29.027 74.8481 30.4774C74.2751 31.9278 73.4851 32.957 72.4801 33.565C71.4741 34.1731 70.3331 34.4794 69.0591 34.4794C67.6821 34.4794 66.4871 34.1593 65.4751 33.5206C64.4641 32.882 63.6341 31.7884 62.9861 30.2416C62.3381 28.6962 62.0141 26.742 62.0141 24.3788C62.0121 22.7385 62.2461 21.2391 62.7181 19.879ZM82.5821 15.9828C82.3421 15.8602 81.5991 15.7591 80.3541 15.6795V14.442C80.5851 14.442 81.3971 14.468 82.7831 14.5155C83.4601 14.54 84.4221 14.5523 85.6671 14.5523C86.7301 14.5523 87.6411 14.5293 88.3991 14.4834C89.6521 14.4252 90.6921 14.3961 91.5111 14.3961C93.1001 14.3961 94.2881 14.5094 95.0781 14.7376C95.8671 14.9658 96.5411 15.4391 97.0971 16.1574C97.6541 16.8772 97.9331 17.7517 97.9331 18.784C97.9331 20.0092 97.5521 21.1211 96.7911 22.1258C96.0311 23.1275 94.8581 23.9224 93.2771 24.5105C93.5301 24.9608 93.8191 25.4233 94.1431 25.8935C94.4661 26.3667 94.6541 26.6516 94.7111 26.7527C94.7661 26.8522 94.8231 26.9472 94.8851 27.0391L97.2381 30.5479C97.8661 31.4806 98.2061 31.983 98.2561 32.0519C99.0161 33.055 99.4821 33.6478 99.6531 33.8285C99.8251 34.0092 99.9931 34.1333 100.154 34.2037C100.315 34.2742 100.633 34.314 101.111 34.3232V35.6526C99.5491 35.6097 98.4221 35.5898 97.7261 35.5898C96.9181 35.5898 96.1111 35.6112 95.3131 35.6526C95.2621 35.4305 95.1411 35.1426 94.9481 34.7888L91.7001 29.4375C90.7701 27.8998 89.9801 26.6914 89.3321 25.8123C89.0071 25.3681 88.6951 25.0343 88.3921 24.8122L88.5591 24.3114C89.7751 24.3512 90.6901 24.2287 91.3091 23.9407C91.9281 23.6528 92.4491 23.1367 92.8761 22.3923C93.3001 21.6495 93.5131 20.8179 93.5131 19.8944C93.5131 18.9662 93.2901 18.1913 92.8451 17.5741C92.3981 16.9568 91.8471 16.5265 91.1881 16.2829C90.7641 16.1313 90.0061 16.0563 88.9111 16.0563C88.4251 16.0563 87.9431 16.0961 87.4681 16.1788C87.4361 16.5433 87.4051 17.3642 87.3731 18.6415C87.3091 21.5056 87.2781 23.4139 87.2781 24.3742C87.2781 25.8904 87.2951 27.5001 87.3241 29.197C87.3651 31.28 87.3981 32.4654 87.4191 32.7472C87.4501 33.3123 87.5061 33.6814 87.5861 33.8545C87.6261 33.9357 87.6921 34.0107 87.7841 34.0766C87.8741 34.1409 88.0211 34.193 88.2221 34.2343C88.4251 34.2757 89.0121 34.3063 89.9811 34.3262V35.6556C88.2521 35.5836 86.5031 35.5469 84.7341 35.5469C83.1581 35.5469 81.6971 35.5836 80.3521 35.6556V34.3247C81.5011 34.2864 82.1811 34.2297 82.3941 34.1593C82.5131 34.1271 82.6021 34.0781 82.6571 34.0061C82.7141 33.9357 82.7551 33.7933 82.7881 33.5819C82.8581 33.1883 82.9071 32.591 82.9381 31.7915L83.0631 27.3561V21.7246L82.9851 18.5206C82.9621 17.2555 82.9041 16.4958 82.8041 16.2431C82.7591 16.1313 82.6831 16.044 82.5821 15.9828ZM106.796 14.5201C105.144 14.5201 103.68 14.4834 102.402 14.4114V15.7438C103.51 15.7852 104.15 15.8265 104.326 15.8725C104.505 15.9169 104.626 15.9766 104.69 16.0471C104.758 16.1175 104.805 16.2186 104.837 16.3503C104.906 16.675 104.969 17.4806 105.02 18.7656C105.043 19.343 105.052 20.6402 105.052 22.6558V29.0056C105.052 30.0394 105.011 31.162 104.926 32.3781C104.876 33.2082 104.834 33.686 104.805 33.807C104.784 33.8989 104.736 33.9786 104.66 34.0506C104.585 34.121 104.438 34.1761 104.226 34.216C104.064 34.2481 103.458 34.2833 102.402 34.3216V35.6526C103.678 35.5806 105.135 35.5438 106.767 35.5438C108.642 35.5438 110.405 35.5806 112.054 35.6526V34.3216C111.057 34.3017 110.451 34.2696 110.241 34.2252C110.031 34.1792 109.879 34.1195 109.781 34.0429C109.685 33.9648 109.616 33.8576 109.575 33.7151C109.474 33.4012 109.42 32.7227 109.42 31.6797L109.374 28.9015V22.7783C109.374 22.5868 109.395 21.2437 109.438 18.7518C109.447 18.0213 109.463 17.525 109.484 17.2631C109.515 16.7776 109.565 16.4468 109.637 16.2753C109.668 16.1742 109.725 16.09 109.804 16.0241C109.887 15.9583 110.025 15.9016 110.219 15.8572C110.411 15.8112 111.023 15.7729 112.053 15.7423V14.4098C110.402 14.4834 108.648 14.5201 106.796 14.5201ZM118.54 35.5454L123.043 35.6541C125.085 35.6541 126.831 35.429 128.278 34.9787C129.722 34.5269 131.065 33.7917 132.304 32.7702C133.543 31.7471 134.516 30.4774 135.224 28.9581C135.931 27.4388 136.285 25.7143 136.285 23.7799C136.285 22.2621 136.049 20.8654 135.573 19.5896C135.288 18.8299 134.873 18.1208 134.321 17.4622C133.77 16.8052 133.095 16.2355 132.297 15.753C131.497 15.2736 130.558 14.9229 129.482 14.7054C128.405 14.488 126.97 14.3792 125.181 14.3792C124.402 14.3792 123.363 14.3976 122.072 14.4328C120.282 14.491 119.063 14.5217 118.415 14.5217L112.909 14.4129L112.907 15.6366C114.007 15.7791 114.641 15.8694 114.813 15.9108C114.983 15.9506 115.11 16.0103 115.189 16.093C115.241 16.1436 115.281 16.214 115.312 16.3059C115.411 16.7011 115.477 17.6123 115.508 19.0397C115.558 21.622 115.584 23.5808 115.584 24.9179V27.4082C115.584 30.4545 115.528 32.6599 115.413 34.0138C115.091 34.2481 114.742 34.4717 114.361 34.6846C114.16 34.7964 114.019 34.8776 113.941 34.9281V35.6602L118.54 35.5454ZM119.85 27.8186V24.3343C119.85 20.3645 119.9 17.6629 120.006 16.2293C120.946 16.093 121.809 16.0256 122.588 16.0256C124.662 16.0256 126.209 16.2079 127.23 16.5709C128.252 16.9339 129.097 17.5235 129.764 18.3322C130.433 19.1408 130.914 20.0858 131.205 21.1625C131.497 22.2392 131.644 23.3572 131.644 24.5105C131.644 25.774 131.497 26.9548 131.205 28.0468C130.912 29.1404 130.499 30.0808 129.967 30.8695C129.436 31.6598 128.883 32.2556 128.307 32.6614C127.73 33.0658 127.057 33.3751 126.288 33.5865C125.244 33.8714 124.052 34.0123 122.706 34.0123C121.847 34.0123 120.946 33.9342 120.005 33.7764C119.902 32.8161 119.85 30.8312 119.85 27.8186ZM137.069 35.5454L133.594 35.6541V34.4013C134.413 34.3416 134.902 34.2895 135.058 34.2435C135.214 34.1976 135.348 34.1256 135.459 34.0291C135.571 33.9326 135.685 33.7825 135.803 33.5742C135.917 33.3659 136.265 32.594 136.841 31.2585C137.104 30.6321 137.61 29.39 138.359 27.5384L142.318 17.7609L143.653 14.3149H145.816L152.596 30.165L153.536 32.2433L154.143 33.6401C154.241 33.8239 154.341 33.9556 154.431 34.0352C154.523 34.1179 154.625 34.1777 154.74 34.219C154.857 34.2573 155.154 34.2941 155.629 34.3247C155.78 34.3446 156.002 34.3691 156.298 34.3982V35.651L152.081 35.5408L146.756 35.6495V34.3967C147.98 34.3477 148.671 34.2803 148.827 34.193C148.985 34.1057 149.061 33.9648 149.061 33.7626C149.061 33.5099 148.945 33.0964 148.712 32.5221L147.412 29.1955H139.576L138.912 31.0104C138.409 32.4011 138.157 33.2695 138.157 33.6125C138.157 33.853 138.238 34.0261 138.399 34.1256C138.639 34.2665 139.363 34.3569 140.566 34.3967V35.651L137.069 35.5454ZM143.407 19.5896L140.284 27.4449C141.236 27.4771 142.316 27.4924 143.523 27.4924C144.689 27.4924 145.733 27.4756 146.657 27.4449L143.407 19.5896ZM130.473 10.3619C130.607 10.7219 130.842 11.0037 131.183 11.2089C131.525 11.4141 131.986 11.5183 132.568 11.5183C133.063 11.5183 133.507 11.4432 133.9 11.2947C134.295 11.1446 134.706 10.9271 135.136 10.6407C135.564 10.3543 135.879 10.0954 136.08 9.85959C136.358 9.52111 136.605 9.03255 136.816 8.39389C137.029 7.75523 137.135 7.11504 137.135 6.47331C137.135 6.13637 137.095 5.82546 137.011 5.54059C136.927 5.25572 136.797 5.01374 136.622 4.80851C136.444 4.60481 136.182 4.44094 135.835 4.31382C135.485 4.1867 135.103 4.12237 134.681 4.12237C134.176 4.12237 133.7 4.21886 133.251 4.41184C132.804 4.60481 132.392 4.84986 132.017 5.14545C131.641 5.44104 131.381 5.67996 131.235 5.86069C131 6.14862 130.781 6.62341 130.577 7.27891C130.373 7.93442 130.272 8.56695 130.272 9.17345C130.277 9.60535 130.341 10.002 130.473 10.3619ZM132.335 6.88224C132.554 6.06286 132.802 5.50843 133.081 5.21744C133.361 4.92644 133.697 4.78094 134.089 4.78094C134.47 4.78094 134.781 4.91419 135.018 5.18068C135.256 5.44717 135.375 5.8806 135.375 6.47791C135.375 7.18243 135.271 7.92217 135.064 8.69714C134.922 9.22399 134.767 9.64058 134.597 9.94229C134.429 10.244 134.242 10.4615 134.038 10.5963C133.834 10.7295 133.594 10.7984 133.314 10.7984C132.896 10.7984 132.576 10.6698 132.346 10.4094C132.118 10.1506 132.003 9.72022 132.003 9.11678C132.007 8.4429 132.116 7.69856 132.335 6.88224ZM139.079 5.15617C138.902 5.15617 138.755 5.15924 138.637 5.16383L138.703 4.78707C138.861 4.72734 139.102 4.65229 139.423 4.56193C139.745 4.47157 140.01 4.37814 140.215 4.28472C140.239 4.2112 140.272 4.08255 140.311 3.8957C140.406 3.47452 140.492 3.18506 140.576 3.02884C140.708 2.78532 140.913 2.53261 141.184 2.27378C141.61 1.87711 142.087 1.48962 142.609 1.11439C143.13 0.737627 143.471 0.51402 143.636 0.443569C143.799 0.373117 144.032 0.337891 144.329 0.337891C144.528 0.337891 144.727 0.377711 144.934 0.45582C144.741 1.11898 144.601 1.74233 144.519 2.33198L144.3 2.37639C144.093 2.06702 143.891 1.84954 143.695 1.72089C143.5 1.59377 143.322 1.52944 143.165 1.52944C143.042 1.52944 142.924 1.56314 142.812 1.63206C142.699 1.70098 142.609 1.79287 142.543 1.9108C142.477 2.0272 142.41 2.20792 142.339 2.45297C142.165 3.10389 142.021 3.7548 141.907 4.40418H142.076C142.207 4.40877 142.538 4.39499 143.064 4.3613C143.381 4.34292 143.62 4.31688 143.779 4.28778L143.852 4.40571C143.75 4.67067 143.673 4.92338 143.624 5.16536C143.394 5.16077 143.016 5.15924 142.491 5.15924C142.162 5.15924 141.915 5.16077 141.754 5.16536L140.941 8.69714C140.549 10.2792 140.213 11.4202 139.939 12.1232C139.664 12.8262 139.293 13.445 138.83 13.981C138.366 14.5171 137.901 14.9091 137.423 15.1603C137.175 15.292 136.934 15.3594 136.703 15.3594C136.533 15.3594 136.346 15.3165 136.146 15.2338C136.283 14.8709 136.385 14.5768 136.45 14.3547C136.518 14.1326 136.576 13.8891 136.631 13.6242L136.865 13.5797C136.968 13.8141 137.08 13.9825 137.199 14.0852C137.319 14.1878 137.454 14.2383 137.601 14.2383C137.743 14.2383 137.873 14.1924 137.994 14.102C138.115 14.0116 138.219 13.8493 138.308 13.615C138.478 13.1448 138.705 12.1585 138.984 10.6575L140.043 5.16842C139.746 5.15924 139.428 5.15617 139.079 5.15617Z" fill="#151515"/>
</g>
<defs>
<clipPath id="clip0_604_85">
<rect width="196" height="37" fill="white" transform="translate(-39.1399)"/>
</clipPath>
</defs>
</svg>
