<svg width="103" height="71" viewBox="0 0 103 71" fill="none" xmlns="http://www.w3.org/2000/svg">
<path fill-rule="evenodd" clip-rule="evenodd" d="M101.859 35.8305C101.492 19.6314 79.9261 6.0445 52.0795 6H51.7987C24.7057 6.0445 1.86011 19.0137 1.86011 36.1786C1.86011 53.087 25.5538 66 51.8636 66C80.3085 66 101.492 52.2586 101.86 36.6615L101.859 35.8305ZM75.237 28.757C76.0074 26.8306 76.6213 25.9027 78.5474 25.9027C79.8541 25.9027 80.5582 26.4733 80.5582 27.3292C80.5582 27.6852 80.5469 27.6852 79.7765 29.4689L78.3146 32.8231H73.5451L75.237 28.757ZM30.0777 42.5232L37.002 25.9001C39.3105 20.3355 40.3096 18.837 45.8481 18.837H64.7737L61.3123 27.1839H49.9276C48.0043 27.1839 47.4653 27.3973 46.9276 28.6117L41.6191 41.098C41.4667 41.454 41.3115 42.0246 41.3115 42.3099C41.3115 43.1658 42.3105 43.5231 43.85 43.5231H48.0819L49.4662 39.8862H45.6209L48.6209 32.8231H59.3918L51.6985 51.5153H34.3872C31.7711 51.5153 29.0011 49.9462 29.0011 46.6639C29.0011 45.5908 29.3087 44.307 30.0777 42.5232ZM11.6997 51.5127L25.6243 18.8357H36.3938L22.4705 51.5127H11.6997ZM55.3942 51.5127L67.7779 21.9033C68.5484 19.9769 70.3941 18.8357 73.2403 18.8357H85.7017C89.1645 18.8357 91.9331 20.0489 91.9331 23.6871C91.9331 24.4003 91.7821 25.1856 91.4716 26.0414L81.3188 51.5127H70.7031L74.7798 41.1674H70.0865L65.6246 51.5127H55.3942Z" fill="#151515"/>
</svg>
