<svg width="65" height="69" viewBox="0 0 65 69" fill="none" xmlns="http://www.w3.org/2000/svg">
<g clip-path="url(#clip0_604_150)">
<path d="M55.4258 23.4618C53.8756 20.8733 52.1792 18.3871 50.3072 16.0179L50.2633 15.9594L50.2487 15.9448C50.161 15.8278 49.9123 15.5206 49.8246 15.4036C48.9764 14.2483 49.0934 13.4001 49.0934 13.4001C48.5815 7.60872 47.9819 4.94703 47.8649 4.25967C47.7333 3.45532 47.4993 2.60709 46.3293 2.49009C45.3787 2.38772 43.9747 2.22685 42.4245 2.15373C41.1229 2.0806 40.9621 3.42607 40.9621 3.42607C40.9328 4.77154 40.9621 5.42964 40.9621 5.59052C40.9621 5.75139 40.9328 5.92688 40.6842 5.98538C40.5818 5.98538 40.4794 5.95613 40.4063 5.89763C38.2711 4.12805 36.0189 2.50472 33.6644 1.04225C33.1964 0.764387 32.6699 0.61814 32.1288 0.603516C31.6462 0.61814 31.1928 0.779011 30.7979 1.04225C30.096 1.48099 18.1184 8.28145 9.05113 23.4179C9.05113 23.4179 8.48077 24.2077 8.90489 24.9535C9.13888 25.4069 9.6215 25.6848 10.1187 25.6701C10.1187 25.6701 13.263 26.0358 13.8919 26.1089C14.6085 26.182 14.6085 26.767 14.6085 26.767C14.55 33.3773 14.9595 39.973 15.8077 46.5249C15.8077 46.5249 15.9686 47.6217 17.0508 47.6802C17.4895 47.7095 19.1275 47.6071 23.471 47.5047C23.6319 47.5193 23.7781 47.4023 23.8074 47.2415C23.8074 47.2122 23.8074 47.1976 23.8074 47.1684C23.3979 42.8687 23.2662 39.1541 23.2516 38.9347C23.237 38.7738 23.1493 38.6422 23.003 38.5837C21.3943 37.6623 20.3998 35.9659 20.3852 34.1232C20.2682 25.6116 20.7801 19.0744 20.7801 19.0744C20.7801 19.0744 20.8239 18.1677 21.6283 18.2408C22.418 18.3139 22.3741 19.2061 22.3741 19.2061C22.0817 22.8768 21.9793 29.4725 21.9793 29.4725C21.9793 29.4725 21.9793 30.7303 23.1785 30.7303C24.3777 30.7303 24.3777 29.4725 24.3777 29.4725C24.3338 24.2954 24.7726 19.1037 24.7726 19.1037C24.7726 19.1037 24.7726 18.2262 25.6208 18.2262C26.3959 18.2262 26.3667 19.2061 26.3667 19.2061C26.0011 23.6958 25.9718 29.4579 25.9718 29.4579C25.9718 29.4579 25.9718 30.7156 27.171 30.7156C28.3702 30.7156 28.3702 29.3555 28.3702 29.3555C28.3556 25.0705 28.7797 19.0598 28.7797 19.0598C28.7651 18.6211 29.1015 18.2555 29.5402 18.2262C29.5695 18.2262 29.5841 18.2262 29.6133 18.2262C30.3299 18.2262 30.3738 19.0598 30.3738 19.0598C29.979 23.7104 29.979 30.8619 29.9936 33.9477C30.0521 35.7904 29.1161 37.5161 27.5513 38.4813C27.405 38.5837 27.3319 38.7446 27.3465 38.9201C27.4489 41.7426 27.6829 44.8869 27.8876 47.1391C27.9023 47.2853 28.0193 47.417 28.1655 47.4316C29.3647 47.4316 30.6809 47.417 32.1288 47.417C34.4541 47.417 36.3699 47.4316 38.081 47.4608C38.2711 47.4608 38.3589 47.3146 38.3735 47.1245C38.8122 43.0588 38.9731 40.1047 38.9877 39.8414C39.017 39.5489 38.6514 39.4904 38.6514 39.4904C38.0225 39.4612 36.8672 39.271 35.8142 39.0956C34.7466 38.9201 34.7173 37.7208 34.7173 37.7208C33.8252 25.0267 40.5233 17.1001 40.5233 17.1001C40.5233 17.1001 41.1814 16.2372 42.1174 16.559C43.0534 16.8807 43.0388 17.8752 43.0388 17.8752C43.9747 28.4488 43.0534 42.0936 42.4538 47.1391C42.4245 47.3438 42.5269 47.5047 42.717 47.5486C42.7316 47.5486 42.7609 47.5486 42.7755 47.5632C45.6419 47.651 46.9728 47.7241 47.3384 47.6802C47.9965 47.6071 48.523 47.1099 48.6254 46.4664C50.044 36.624 49.8392 26.767 49.8392 26.767C49.8685 26.416 50.1463 26.1381 50.4973 26.1089L54.3582 25.6994C54.8701 25.6263 55.2942 25.4215 55.5136 24.9828C55.7183 24.4709 55.6891 23.9152 55.4258 23.4618Z" fill="#151515"/>
<path d="M1.22743 53.3828H4.09386C4.2401 53.3828 4.3571 53.4706 4.4156 53.6022L7.31128 61.0022C7.36977 61.1485 7.57452 61.1485 7.63302 61.0022L10.5725 53.6022C10.631 53.4706 10.748 53.3828 10.8943 53.3828H13.7022C13.8923 53.3828 14.0386 53.5291 14.0386 53.7192V64.088C14.0386 64.2782 13.8923 64.4244 13.7022 64.4244H11.7718C11.5816 64.4244 11.4354 64.2782 11.4354 64.088V58.6184C11.4354 58.4283 11.1722 58.3844 11.1137 58.5599L8.80299 64.2197C8.74449 64.3513 8.62749 64.4244 8.48125 64.4244H6.47767C6.34605 64.4244 6.21443 64.3367 6.15593 64.2197L3.84524 58.5599C3.77211 58.3844 3.5235 58.4429 3.5235 58.6184V64.088C3.5235 64.2782 3.37725 64.4244 3.18713 64.4244H1.22743C1.03731 64.4244 0.891062 64.2782 0.891062 64.088V53.7192C0.876437 53.5291 1.03731 53.3828 1.22743 53.3828Z" fill="#151515"/>
<path d="M14.7549 60.2282C14.7549 58.1661 16.0126 55.8262 19.0546 55.8262C22.1111 55.8262 23.2957 58.1661 23.2957 60.2282C23.2957 60.3891 23.2811 60.6084 23.2518 60.7985C23.2226 60.9594 23.091 61.091 22.9155 61.091H17.5482C17.4312 61.091 17.3435 61.2227 17.3874 61.325C17.7091 62.0709 18.4988 62.4073 19.2739 62.4073C19.9028 62.4073 20.5024 62.2318 20.8973 61.9393C21.0289 61.8369 21.219 61.8515 21.336 61.9685L22.389 62.9922C22.5206 63.1239 22.5352 63.3432 22.389 63.4749C21.7016 64.133 20.5463 64.6156 19.1716 64.6156C16.1589 64.6302 14.7549 62.2903 14.7549 60.2282ZM17.4897 59.3507H20.6048C20.7218 59.3507 20.7949 59.2337 20.7657 59.1313C20.5024 58.2977 19.8443 57.9467 19.0546 57.9467C18.2502 57.9467 17.5921 58.2977 17.3289 59.1313C17.2996 59.2337 17.3727 59.3507 17.4897 59.3507Z" fill="#151515"/>
<path d="M24.188 56.0309H25.8698C26.0599 56.0309 26.2062 56.1772 26.2062 56.3673V56.8499H26.2354C26.6742 56.2357 27.537 55.8262 28.6485 55.8262C31.1054 55.8262 32.1877 57.4641 32.1877 59.7017V64.0891C32.1877 64.2792 32.0414 64.4255 31.8513 64.4255H30.0232C29.8331 64.4255 29.6868 64.2792 29.6868 64.0891V60.0966C29.6868 59.029 29.2627 58.1369 28.0489 58.1369C26.8935 58.1369 26.3671 58.9705 26.3671 60.0966V64.0891C26.3671 64.2792 26.2208 64.4255 26.0307 64.4255H24.2026C24.0125 64.4255 23.8662 64.2792 23.8662 64.0891V56.3819C23.8516 56.1918 23.9979 56.0309 24.188 56.0309Z" fill="#151515"/>
<path d="M32.875 60.7551V56.3676C32.875 56.1775 33.0212 56.0312 33.2114 56.0312H35.0394C35.2296 56.0312 35.3758 56.1775 35.3758 56.3676V60.3895C35.3758 61.4425 35.7707 62.3052 36.9114 62.3052C38.0375 62.3052 38.564 61.4862 38.564 60.3895V56.3676C38.564 56.1775 38.7102 56.0312 38.9003 56.0312H40.7431C40.9332 56.0312 41.0794 56.1775 41.0794 56.3676V64.0748C41.0794 64.2649 40.9332 64.4113 40.7431 64.4113H39.0612C38.8711 64.4113 38.7249 64.2649 38.7249 64.0748V63.5923H38.6956C38.2569 64.2065 37.4233 64.6159 36.3557 64.6159C33.928 64.6305 32.875 62.9927 32.875 60.7551Z" fill="#151515"/>
<path d="M42.498 52.4473H44.3261C44.5162 52.4473 44.6624 52.5935 44.6624 52.7836V64.0738C44.6624 64.264 44.5162 64.4102 44.3261 64.4102H42.498C42.3079 64.4102 42.1616 64.264 42.1616 64.0738V52.7836C42.1616 52.5935 42.3225 52.4473 42.498 52.4473Z" fill="#151515"/>
<path d="M45.2915 60.2282C45.2915 58.1661 46.7393 55.8262 49.7959 55.8262C52.8524 55.8262 54.3003 58.1661 54.3003 60.2282C54.3003 62.2903 52.8524 64.6302 49.7959 64.6302C46.7393 64.6302 45.2915 62.2903 45.2915 60.2282ZM49.7959 62.2464C50.8488 62.2464 51.7263 61.4128 51.7263 60.2282C51.7263 59.0436 50.8488 58.21 49.7959 58.21C48.7429 58.21 47.8654 59.0436 47.8654 60.2282C47.8508 61.4128 48.7429 62.2464 49.7959 62.2464Z" fill="#151515"/>
<path d="M55.7332 66.2233L56.8593 65.0826C56.9763 64.9656 57.1664 64.951 57.2981 65.0534C57.6929 65.3605 58.2925 65.5799 58.936 65.5799C60.0036 65.5799 60.9542 65.2289 60.9542 63.898V63.0644H60.925C60.6178 63.4739 59.8427 63.9711 58.6435 63.9711C56.1135 63.9711 54.7095 62.0846 54.7095 59.9786C54.7095 57.6241 56.3475 55.8398 58.6435 55.8398C59.8135 55.8398 60.6178 56.2493 61.0712 56.8197H61.1005V56.381C61.1005 56.1908 61.2467 56.0446 61.4368 56.0446H63.1333C63.3234 56.0446 63.4697 56.1908 63.4697 56.381V63.9565C63.4697 66.2087 61.8317 67.7735 58.9214 67.7735C57.5613 67.7735 56.3913 67.3202 55.7332 66.7206C55.6016 66.589 55.6016 66.3696 55.7332 66.2233ZM60.9688 59.8909C60.9688 58.9256 60.3107 58.0043 59.1115 58.0043C57.9269 58.0043 57.2542 58.9256 57.2542 59.8909C57.2542 60.8561 57.9123 61.7774 59.1115 61.7774C60.3107 61.7774 60.9688 60.8561 60.9688 59.8909Z" fill="#151515"/>
</g>
<defs>
<clipPath id="clip0_604_150">
<rect width="64" height="68" fill="white" transform="translate(0.180176 0.5)"/>
</clipPath>
</defs>
</svg>
