<svg width="197" height="75" viewBox="0 0 197 75" fill="none" xmlns="http://www.w3.org/2000/svg">
<g clip-path="url(#clip0_604_194)">
<mask id="mask0_604_194" style="mask-type:luminance" maskUnits="userSpaceOnUse" x="0" y="0" width="197" height="75">
<path d="M196.03 0.968262H0.490723V74.032H196.03V0.968262Z" fill="white"/>
</mask>
<g mask="url(#mask0_604_194)">
<path d="M37.0206 37.5018C47.1071 37.5018 55.2945 45.6732 55.2945 55.7757C65.381 55.7757 73.5684 47.6043 73.5684 37.5018C73.5684 27.4153 65.381 19.2439 55.2945 19.2439C55.2945 29.3304 47.1071 37.5018 37.0206 37.5018ZM18.7626 55.7597C18.7626 65.8463 26.934 74.0336 37.0365 74.0336C47.1231 74.0336 55.3104 65.8623 55.3104 55.7597H18.7626ZM18.7626 55.7597C18.7626 45.6732 26.934 37.4858 37.0365 37.4858C26.95 37.4858 18.7626 29.3145 18.7626 19.2279C8.66015 19.2279 0.48877 27.4153 0.48877 37.5018C0.48877 47.5884 8.66015 55.7597 18.7626 55.7597ZM18.7626 19.2279C18.7626 9.14136 26.934 0.969971 37.0206 0.969971C47.1071 0.969971 55.2945 9.14136 55.2945 19.2279H18.7626Z" fill="#151515"/>
<path d="M176.014 49.04L172.79 49.0559V49.04V25.8983H176.014C184.888 25.8983 188.08 31.6917 188.08 37.4691C188.08 43.2625 184.888 49.04 176.014 49.04ZM176.541 19.1952H164.906V55.6952H176.541C186.212 55.6952 196.044 50.1093 196.044 37.4851C196.028 24.845 186.212 19.1952 176.541 19.1952ZM160.757 30.0159C160.757 22.8021 155.219 18.6047 148.579 18.6047C142.004 18.6047 134.838 22.451 134.838 29.9362C134.838 36.4158 141.972 39.7514 146.058 40.8047C148.292 41.3952 153.942 42.0336 153.942 46.0714C153.942 49.9018 150 50.9551 147.047 50.9551C143.233 50.9551 141.014 48.2898 141.334 44.268H133.849C133.593 53.3491 139.77 56.7326 146.983 56.9081C155.33 57.0996 161.682 53.5406 161.682 45.5129C161.682 37.4372 154.469 36.1604 148.819 34.341C146.632 33.6388 142.579 33.0004 142.579 29.2658C142.579 26.1537 145.276 24.6535 148.021 24.6535C151.564 24.6535 153.399 26.409 153.671 30.0479H160.757V30.0159ZM119.597 19.2272H130.912V55.759H122.517V31.197L111.792 55.759L100.493 31.165V55.759H92.6724V19.2272H103.86L111.92 38.1395L119.597 19.2272Z" fill="#151515"/>
</g>
</g>
<defs>
<clipPath id="clip0_604_194">
<rect width="196" height="75" fill="white" transform="translate(0.179688)"/>
</clipPath>
</defs>
</svg>
