<svg width="189" height="67" viewBox="0 0 189 67" fill="none" xmlns="http://www.w3.org/2000/svg">
<g clip-path="url(#clip0_604_163)">
<path fill-rule="evenodd" clip-rule="evenodd" d="M78.6383 22.9042H75.0896V22.4505H76.3215V15.3899H73.8593V16.3751H73.2676V14.4282H73.8593V14.7718H79.8716V14.4282H80.4618V16.3751H79.8716V15.3899H77.4065V22.4505H78.6383V22.9042Z" fill="#151515"/>
<path fill-rule="evenodd" clip-rule="evenodd" d="M89.8304 22.9034H86.8954V22.4497H87.8233V19.0611H83.2014V22.4497H84.1249V22.9034H81.1914V22.4497H82.1179V15.2261H81.1914V14.771H84.1249V15.2261H83.2014V18.5061H87.8233V15.2261H86.8954V14.771H89.8304V15.2261H88.8936V22.4497H89.8304V22.9034Z" fill="#151515"/>
<path fill-rule="evenodd" clip-rule="evenodd" d="M96.4709 22.9042H90.8652V22.4505H91.7902V15.2269H90.8652V14.7718H95.7823V14.4282H96.3461V16.3883H95.794V15.34H92.8738V18.4937H95.2009V17.5702L95.7705 17.5584V19.9854L95.2009 19.9957V19.0457H92.8738V22.3507H95.9056V21.2657H96.4709V22.9042Z" fill="#151515"/>
<path fill-rule="evenodd" clip-rule="evenodd" d="M108.632 15.2261H107.707V19.9215C107.707 21.2384 107.239 22.09 106.213 22.6435C105.696 22.9151 105.107 23.0634 104.501 23.0634C102.718 23.0634 101.4 21.8801 101.4 20.2636V15.2261H100.475V14.771H103.408V15.2261H102.483V19.8833C102.483 21.3735 103.36 22.3499 104.725 22.3499C106.129 22.3499 107.08 21.353 107.08 19.8701V15.2276H106.155V14.7725H108.634V15.2261H108.632Z" fill="#151515"/>
<path fill-rule="evenodd" clip-rule="evenodd" d="M116.244 23.0385H115.861L111.132 16.5343V22.4468H112.066V22.9034H109.578V22.4468H110.514V15.696L110.183 15.2276H109.333V14.771H111.122L115.629 20.9565V15.2276H114.692V14.771H117.169V15.2276H116.244V23.0385Z" fill="#151515"/>
<path fill-rule="evenodd" clip-rule="evenodd" d="M120.99 22.9034H118.057V22.4497H118.983V15.2261H118.057V14.771H120.99V15.2261H120.068V22.4497H120.99V22.9034Z" fill="#151515"/>
<path fill-rule="evenodd" clip-rule="evenodd" d="M125.966 23.1119H125.549L122.444 15.2261H121.717V14.771H124.772V15.2261H123.614L126.003 21.2766L128.368 15.2261H127.558V14.771H129.666V15.2261H129.048L125.966 23.1119Z" fill="#151515"/>
<path fill-rule="evenodd" clip-rule="evenodd" d="M136.003 22.9042H130.398V22.4505H131.321V15.2269H130.398V14.7718H135.313V14.4282H135.88V16.3883H135.325V15.34H132.405V18.4937H134.733V17.5702L135.303 17.5584V19.9854L134.733 19.9957V19.0457H132.405V22.3507H135.435V21.2657H136.003V22.9042Z" fill="#151515"/>
<path fill-rule="evenodd" clip-rule="evenodd" d="M144.306 22.9034H143.257C142.532 22.9034 142.396 22.83 141.99 22.1752L140.154 19.2549H139.193V22.4453H140.117V22.9019H137.188V22.4453H138.111V15.2247H137.188V14.771H140.609C141.806 14.771 142.485 15.1028 142.852 15.8648C143.012 16.2025 143.099 16.571 143.099 16.966C143.099 18.1611 142.432 18.9231 141.249 19.0949L143.025 21.8331C143.319 22.2882 143.519 22.4365 143.826 22.4365H144.306V22.9034ZM139.193 18.6896H140.377C141.312 18.6896 141.967 18.0011 141.967 16.9895C141.967 15.9309 141.387 15.3392 140.352 15.3392H139.193V18.6896Z" fill="#151515"/>
<path fill-rule="evenodd" clip-rule="evenodd" d="M145.885 23.0146H145.303V20.7961H145.885V21.771C146.636 22.2761 146.967 22.4009 147.508 22.4009C148.496 22.4009 149.16 21.8826 149.16 21.1074C149.16 20.4026 148.681 19.8873 147.35 19.1972C145.798 18.3853 145.268 17.7687 145.268 16.7585C145.268 15.5355 146.303 14.6267 147.696 14.6267C148.311 14.6267 148.767 14.7368 149.16 14.9717V14.5239H149.73V16.6337H149.16V15.7558C148.533 15.3358 148.223 15.2125 147.729 15.2125C146.893 15.2125 146.351 15.7205 146.351 16.4825C146.351 17.1124 146.71 17.4691 148.247 18.3559C149.79 19.2427 150.233 19.786 150.233 20.7946C150.233 22.0778 149.175 23.0615 147.783 23.0615C147.006 23.0615 146.498 22.9 145.885 22.508V23.0146Z" fill="#151515"/>
<path fill-rule="evenodd" clip-rule="evenodd" d="M154.302 22.9034H151.371V22.4497H152.296V15.2261H151.371V14.771H154.302V15.2261H153.378V22.4497H154.302V22.9034Z" fill="#151515"/>
<path fill-rule="evenodd" clip-rule="evenodd" d="M160.462 22.9042H156.912V22.4505H158.145V15.3899H155.68V16.3751H155.09V14.4282H155.68V14.7718H161.694V14.4282H162.284V16.3751H161.694V15.3899H159.23V22.4505H160.462V22.9042Z" fill="#151515"/>
<path fill-rule="evenodd" clip-rule="evenodd" d="M168.25 22.9034H165.318V22.4497H166.244V19.1595L163.692 15.2261H162.979V14.771H166.018V15.2261H164.899L167.018 18.4547L168.975 15.2261H167.855V14.771H170.318V15.2261H169.678L167.314 19.0831V22.4497H168.25V22.9034Z" fill="#151515"/>
<path fill-rule="evenodd" clip-rule="evenodd" d="M173.501 18.8515C173.501 16.5346 175.303 14.6274 177.48 14.6274C179.625 14.6274 181.424 16.5479 181.424 18.8412C181.424 21.1316 179.625 23.0682 177.48 23.0682C175.312 23.0667 173.501 21.1463 173.501 18.8515ZM174.721 18.8397C174.721 20.9216 175.878 22.4251 177.48 22.4251C179.058 22.4251 180.202 20.9099 180.202 18.8397C180.202 16.7696 179.06 15.2661 177.496 15.2661C175.878 15.2661 174.721 16.7446 174.721 18.8397Z" fill="#151515"/>
<path fill-rule="evenodd" clip-rule="evenodd" d="M185.12 22.9042H182.188V22.4505H183.116V15.2269H182.188V14.7718H187.105V14.4282H187.673V16.3883H187.117V15.34H184.198V18.4937H186.525V17.5702L187.09 17.5584V19.9854L186.525 19.9957V19.0457H184.198V22.4505H185.12V22.9042Z" fill="#151515"/>
<path fill-rule="evenodd" clip-rule="evenodd" d="M74.7938 49.2253H73.2668V43.3819H74.7938V45.9483C76.7744 47.28 77.6538 47.603 79.0795 47.603C81.6797 47.603 83.4312 46.2375 83.4312 44.1938C83.4312 42.3453 82.1656 40.9814 78.661 39.1608C74.5677 37.0157 73.1699 35.3934 73.1699 32.7154C73.1699 29.5015 75.8964 27.0965 79.564 27.0965C81.1908 27.0965 82.3888 27.3887 83.4312 28.0068V26.8381H84.9244V32.3894H83.4312V30.0843C81.7751 28.9832 80.9632 28.6572 79.6653 28.6572C77.4556 28.6572 76.0285 29.9889 76.0285 32.0004C76.0285 33.6594 76.9697 34.6064 81.0263 36.9511C85.0888 39.29 86.2575 40.72 86.2575 43.3819C86.2575 46.7602 83.4665 49.3546 79.796 49.3546C77.7522 49.3546 76.4206 48.9332 74.7952 47.8966V49.2253H74.7938Z" fill="#151515"/>
<path fill-rule="evenodd" clip-rule="evenodd" d="M100.741 48.9295H93.0101V47.73H95.4459V39.0602L88.7244 28.6873H86.8438V27.4849H94.8645V28.6873H91.9075L97.4911 37.2103L102.655 28.6873H99.7008V27.4849H106.194V28.6873H104.505L98.2737 38.8664V47.73H100.741V48.9295Z" fill="#151515"/>
<path fill-rule="evenodd" clip-rule="evenodd" d="M107.817 48.9295V47.7285H110.251V28.6859H107.817V27.4849H117.395C123.237 27.4849 128.012 32.2874 128.012 38.1822C128.012 44.1886 123.334 48.9295 117.362 48.9295H107.817ZM113.11 47.3056H117.006C121.455 47.3056 124.83 43.3767 124.798 38.216C124.798 33.1991 121.354 29.1425 117.068 29.1425H113.11V47.3056Z" fill="#151515"/>
<path fill-rule="evenodd" clip-rule="evenodd" d="M146.742 49.2863H145.733L133.267 32.1273V47.727H135.735V48.928H129.173V47.727H131.64V29.9162L130.766 28.6829H128.523V27.4849H133.234L145.118 43.7981V28.6829H142.648V27.4849H149.177V28.6829H146.742V49.2863Z" fill="#151515"/>
<path fill-rule="evenodd" clip-rule="evenodd" d="M166.145 48.9257H151.371V47.7262H153.807V28.6835H151.371V27.4811H164.327V26.5737H165.819V31.7345H164.361V28.9742H156.663V37.3034H162.8V34.8618L164.293 34.8309V41.2323L162.8 41.2646V38.7657H156.663V47.4648H164.651V44.6092H166.145V48.9257Z" fill="#151515"/>
<path fill-rule="evenodd" clip-rule="evenodd" d="M182.223 48.9295H174.494V47.73H176.929V39.0602L170.209 28.6873H168.326V27.4849H176.347V28.6873H173.39L178.975 37.2103L184.138 28.6873H181.184V27.4849H187.679V28.6873H185.988L179.756 38.8664V47.73H182.223V48.9295Z" fill="#151515"/>
<path fill-rule="evenodd" clip-rule="evenodd" d="M61.075 10.0974V25.1582C61.075 43.4109 48.6423 62.1629 30.7257 65.6704C13.4464 62.3934 0.392578 43.4109 0.392578 25.1582V4.9043C0.392578 4.9043 15.5298 0.852051 30.7316 0.852051C48.3941 0.852051 61.075 4.9043 61.075 4.9043V10.0974ZM30.7301 60.9193C45.2786 60.9046 56.5588 47.4103 56.5603 32.5477V6.96566L56.183 6.85114C56.183 6.85114 43.0734 2.78568 30.7228 2.78274C18.3781 2.78568 5.29345 6.84527 5.26849 6.85114L4.88823 6.96566V32.5477C4.8897 47.4103 16.1714 60.9046 30.7213 60.9193H30.7301Z" fill="#151515"/>
<path fill-rule="evenodd" clip-rule="evenodd" d="M30.7345 26.3161C41.4538 26.3161 52.7576 28.0368 55.4972 28.4788V7.76236C55.1317 7.65519 54.5077 7.47166 53.662 7.24996C52.254 6.8741 50.2499 6.3705 47.8626 5.86691C43.0909 4.85972 36.7923 3.85693 30.733 3.85693C21.6419 3.85547 12.0236 6.11944 7.80107 7.25143C6.95979 7.47313 6.33434 7.65665 5.96875 7.76383V28.4788C8.70549 28.0383 20.0136 26.3161 30.7345 26.3161ZM41.6873 20.107C41.3393 20.4124 40.7153 20.7428 39.736 20.7075C39.322 20.6914 39.1223 20.8088 39.0166 20.9307L38.9094 21.1407C38.8536 21.3462 38.9271 21.5664 39.0386 21.7368C39.14 21.885 39.1003 21.9834 38.9373 22.0231C38.7788 22.0656 38.5644 22.0686 38.1401 21.8645C37.9551 21.7764 37.9037 21.8909 37.8788 21.9761C37.8083 22.1831 37.9419 22.4342 38.2194 22.6177C38.3589 22.7439 38.3324 22.8629 38.1151 22.9407C37.7422 23.0714 37.4119 22.8996 36.8642 22.5971C36.5442 22.4195 36.299 22.3901 36.0817 22.647L36.042 22.9935C36.2564 23.202 36.3812 23.6219 35.8512 24.2856C35.6779 24.5043 35.4915 23.8994 35.33 23.9699C34.6047 24.3105 34.0144 23.8671 33.7927 23.5632L33.5167 23.5617C33.1555 23.8055 32.3818 24.2048 32.0852 23.5074C32.0382 23.4032 31.6139 23.6645 31.6183 23.4634C31.6345 22.3108 32.6358 22.0935 33.0616 22.0583L33.1526 21.8762C32.9794 21.6252 32.7753 21.3271 32.8883 20.9806C32.9632 20.7281 32.3099 20.6679 32.5785 20.5343C33.9014 19.8736 34.6399 21.1363 34.8675 21.2713C35.2507 21.4916 36.9743 20.9322 37.1843 19.9955C37.2298 19.8134 36.7835 19.7297 36.3401 19.6211L36.3606 19.3803C37.4075 18.6036 38.2458 17.5949 40.1369 17.4055C40.3644 17.385 40.4569 17.5729 40.4657 17.6654C40.4995 17.9576 40.5803 18.2468 40.7021 18.5111C40.9781 19.0925 41.3056 19.4537 41.6388 19.7194C41.7959 19.8486 41.7783 20.0292 41.6873 20.107ZM49.2588 17.4437C50.6463 17.4525 49.2794 18.5948 49.2089 18.9281C49.159 19.1718 49.3866 19.3876 49.6009 19.5154C49.7668 19.6034 49.7712 19.7077 49.6479 19.8178C49.5187 19.9294 49.3278 20.0336 48.8609 20.041C48.6554 20.0439 48.6613 20.1716 48.6789 20.2583C48.7053 20.4726 48.9446 20.6385 49.275 20.6767C49.4556 20.7252 49.4864 20.8426 49.3278 21.01C49.0533 21.2992 48.6848 21.2992 48.0608 21.2757C47.472 21.2522 47.0037 21.9687 47.3502 22.2638C47.5807 22.465 48.0549 22.9069 47.6453 24.1152C47.5175 24.4794 47.2929 23.7805 47.105 23.8891C46.6205 24.1798 46.1932 23.8157 45.973 23.5515H45.7293C45.534 23.8935 45.0201 24.494 43.985 23.9332C43.7589 23.8157 43.2964 24.2268 43.27 24.0874C43.1012 23.2813 43.5152 22.8027 43.8646 22.5516C43.9028 22.5222 44.0379 22.3417 43.8088 22.3475C43.4579 22.3299 43.0322 22.2139 42.9852 21.7867L42.5579 21.5958C42.6651 21.0056 43.9659 20.5754 44.8645 21.1686C45.6221 21.6707 46.5735 19.9602 45.8893 19.1556C45.396 18.5772 42.4977 20.1951 41.5111 18.0941C41.1176 17.2484 41.6109 16.5261 41.2087 16.4674C40.8049 16.4116 38.9843 16.0166 36.9582 17.6434C33.5402 20.3933 29.833 18.8943 28.9609 18.285L28.7509 18.4876C28.8904 18.8429 28.8317 19.1733 28.6584 19.4258C28.3046 19.9632 27.0742 20.5152 26.8584 20.5783C25.4166 21.0012 25.5693 22.1023 25.7191 22.5927L25.5532 22.8056C25.1142 22.7205 24.2244 22.4532 23.875 21.587L23.6181 21.5694C23.0822 21.9482 23.2716 22.5046 23.3978 22.7498L23.2921 22.9568C22.8032 23.0126 22.4509 22.443 22.028 22.4841C21.752 22.509 21.4275 22.7205 21.2528 22.8423C21.1676 22.8981 21.1574 23.0391 21.2073 23.1961C21.7446 24.7921 20.8608 24.8464 20.8065 24.817C20.7463 24.7833 20.7815 24.5175 20.5246 24.4764C19.6568 24.5219 19.4102 23.9581 19.3617 23.5382L19.2017 23.4208C18.8714 23.6484 18.0653 24.0991 17.5573 23.434L17.111 23.4986L17.0053 23.3151C17.0655 22.4048 17.6836 21.9966 18.0198 21.8366L18.058 21.6384C17.7849 21.4358 17.3018 20.9953 17.456 20.5167L17.158 20.179C18.1534 19.4566 19.4322 20.6547 19.5952 20.7824C19.767 20.919 20.6699 20.9483 22.9779 19.6504C24.4447 18.8253 25.214 18.1426 25.6325 17.6258L25.9349 17.4511C26.8687 17.4202 27.7878 17.2793 28.5043 16.6465L28.795 16.6318C30.1178 17.5494 30.7976 15.5174 31.0692 14.5881C31.1045 14.4001 31.1426 14.2416 31.3452 14.2327C36.2065 14.4677 45.4195 14.4324 45.4195 14.4324C45.4195 14.4324 46.6337 14.5293 46.5705 13.7747C46.4722 12.5634 41.448 12.5913 37.6982 13.1066C36.3371 13.2946 34.3595 13.4047 33.1878 12.9495C32.7019 12.7616 32.3099 12.4621 32.0926 12.0745C31.8576 11.5797 31.9208 11.2861 31.9634 10.9704C32.0236 10.7443 32.1351 10.5079 32.2908 10.251C33.2524 8.76662 35.4768 8.65063 36.1654 8.65063L36.4003 8.50087C36.4678 8.15731 36.7292 7.36008 37.66 7.30869C37.9243 7.29547 38.19 7.19417 38.3559 7.11635L38.5145 7.19417L38.2943 7.59646C37.6394 8.15584 37.7378 8.41278 37.8142 8.48619L37.9669 8.45683C39.9504 6.73021 41.1029 7.87542 41.4553 8.24687L41.4142 8.44508C40.0679 8.749 39.5481 9.94852 36.7996 9.75472C36.4649 9.73563 34.22 9.62111 33.502 10.6415C33.0924 11.2332 33.3772 11.7838 34.5929 12.0525C35.512 12.2565 37.6644 11.9438 38.6775 11.8616C39.6685 11.7764 43.9997 11.2391 46.2696 11.8924C47.2268 12.164 48.6172 12.9349 48.3412 14.3869C48.1591 15.3045 47.2797 15.6643 47.2797 15.6643C47.2797 15.6643 44.7925 17.4261 49.2588 17.4437ZM16.7674 15.1959C17.4795 15.8302 19.1958 16.3279 20.8094 16.6773L21.5567 16.9401C22.8605 17.6067 23.6592 17.5421 24.3639 17.2661C24.59 17.178 24.5886 17.4628 24.5093 17.5377C21.9208 20.0101 19.949 19.3788 19.2546 18.9325C18.7686 18.6212 17.7775 18.6124 17.3195 19.2467C17.2431 19.323 17.1007 19.37 17.0449 19.1674C16.9069 18.6946 17.0567 18.3819 17.1976 18.0398C17.2842 17.8622 17.064 17.8122 16.9877 17.8122C16.5868 17.8122 16.4209 17.94 16.1273 18.1294C15.9423 18.2571 15.8836 17.8974 16.1038 17.1545C16.2829 16.5745 15.1392 16.2633 14.8734 16.5334C14.4902 16.8315 13.508 17.4173 12.5537 16.4101C12.3628 16.2046 12.9868 16.2736 13.0264 16.0959C13.0808 15.836 13.3201 15.6804 13.417 15.5747L13.3744 15.3295C13.0808 15.1739 12.6799 14.8332 12.7915 14.2034C12.8062 14.1138 12.2923 14.0815 12.4641 13.9244C13.3612 13.0934 14.3434 13.6132 14.7384 13.8789L14.9586 13.7864C14.985 13.5177 14.8485 13.3371 15.3873 12.8879C15.493 12.8027 15.0746 12.4386 15.3667 12.4562C17.224 12.9216 16.3828 14.8553 16.7674 15.1959ZM38.3427 10.1776C38.3427 10.1776 39.4718 10.1379 40.2088 9.48457C40.2088 9.48457 41.0016 9.21295 41.4627 9.63433L41.4025 9.81932C41.2659 9.84428 41.0736 9.90301 40.8622 10.044C40.4613 10.3156 38.8448 10.9836 38.3427 10.1776ZM26.1742 16.0489C26.0318 16.4189 25.5062 16.297 25.2258 16.5246L25.0892 16.5334C24.8073 16.297 24.2876 16.4116 24.1187 16.0078L24.1804 15.8962C24.5519 15.8581 24.8793 15.6775 25.1171 15.4132L25.2551 15.4264C25.4695 15.6687 25.7719 15.8434 26.1082 15.8962L26.1742 16.0489ZM22.8605 9.34215L22.8575 9.47136C22.605 9.67837 22.3818 9.93678 22.2086 10.2201L22.0853 10.229C21.9546 10.1174 21.8665 9.95146 21.8665 9.76647C21.8665 9.44052 22.1264 9.18065 22.4538 9.18065L22.8605 9.34215ZM23.2819 14.4515C23.2819 14.1902 22.7959 13.0494 22.6094 12.7396C22.2174 12.0613 22.8003 10.066 23.7341 9.83254C23.9352 9.78408 24.0394 9.48897 23.8838 9.33334C23.4933 8.94867 23.044 8.46123 22.4523 8.46123C21.7256 8.46123 21.1309 9.05292 21.1309 9.78408C21.1309 10.6166 21.7769 10.7531 21.7314 10.9821C21.4745 11.7588 21.4686 12.6001 21.8166 13.2006C22.0588 13.6132 22.2409 14.2709 22.3862 14.7408C22.4758 15.2297 22.765 15.6393 23.182 15.883C23.389 16.0049 23.2877 16.1605 23.3729 16.3352L23.5314 16.5187L23.4786 16.5922C22.8664 16.5143 21.9164 16.2559 21.5244 15.4293C21.3203 14.9874 20.6523 16.5466 20.2544 15.8008C19.8345 15.0065 19.6407 14.4104 19.4557 13.6161C19.3529 13.1756 19.074 13.9288 18.9697 13.6646C18.7774 13.1727 18.6409 12.6471 18.6409 12.0818C18.6409 10.1276 20.0738 8.48913 22.003 8.04279C22.3789 7.95323 21.5699 7.33511 22.097 7.36301C22.4406 7.38357 23.5726 7.38797 24.4271 7.80788C24.5886 7.87542 24.6884 7.56416 25.0143 7.3542H25.1773C25.515 7.56416 25.6339 7.86661 25.7969 7.79466C26.647 7.3865 27.7702 7.3865 28.1078 7.36301C28.6526 7.33218 27.8304 7.9547 28.2033 8.04279C30.134 8.48913 31.5684 10.1276 31.5684 12.0818C31.5684 12.6471 31.426 13.1727 31.2366 13.6646C31.1309 13.9288 30.8563 13.1756 30.7536 13.6161C30.5656 14.4104 30.3718 15.0065 29.9534 15.8008C29.5496 16.5466 28.8889 14.9859 28.6834 15.4293C28.309 16.2134 27.4339 16.4835 26.8261 16.5789L26.7732 16.4982C26.807 16.4688 26.9553 16.3308 26.9935 16.0533L27.0463 15.9506C27.5059 15.7303 27.8509 15.3016 27.9552 14.7833C28.1049 14.3062 28.2987 13.622 28.5322 13.2006C29.0563 12.2654 28.422 11.1378 28.585 10.8852C28.9433 10.6533 29.1796 10.2422 29.1796 9.78262C29.1796 9.05145 28.588 8.45976 27.8641 8.45976C27.4677 8.45976 27.1153 8.63301 26.8775 8.9061L26.8408 8.9384L26.4987 9.33922C26.3812 9.49191 26.4062 9.77087 26.6117 9.8296C27.5132 10.063 28.099 12.0921 27.7291 12.7469C27.5705 13.0406 27.0742 14.1314 27.0742 14.4486C27.0742 14.8582 26.7454 15.19 26.3357 15.19C26.023 15.19 25.7602 14.9947 25.6501 14.707L25.6662 14.6747C25.9143 14.5205 26.4635 14.1916 26.4635 13.8481L26.3519 12.7396C26.8011 12.6853 27.0052 12.4401 27.0654 12.0158L27.1799 11.9306C27.3268 11.7926 27.4266 11.4197 27.1065 11.474C26.6514 11.5577 26.136 11.5445 25.6383 11.681L25.5077 11.8249C25.4886 11.9233 25.7807 13.2623 25.8468 13.5588L25.8116 13.6146C25.609 13.597 25.2448 13.5794 25.1582 13.5794C25.0716 13.5794 24.7134 13.6014 24.5019 13.6161L24.4608 13.5632C24.5284 13.2491 24.8205 11.913 24.8205 11.913L24.7882 11.7515C24.6913 11.6252 23.3832 11.5136 23.2084 11.4784L23.0161 11.5562C22.884 11.7383 23.1115 11.9453 23.2554 12.0304C23.3112 12.4415 23.527 12.6838 23.9602 12.7381L23.9807 12.7572L23.8559 13.8584C23.8559 14.221 24.3948 14.5205 24.6649 14.6791L24.7001 14.7452C24.5724 15.0006 24.3184 15.1871 24.0248 15.1871C23.6107 15.193 23.2819 14.8611 23.2819 14.4515ZM27.5059 9.40529L27.5147 9.2937L27.8627 9.17918C28.1871 9.17918 28.4499 9.44053 28.4499 9.765C28.4499 9.94999 28.3618 10.1144 28.2356 10.2201L28.1196 10.1864C27.9537 9.88245 27.7481 9.61377 27.5059 9.40529Z" fill="#151515"/>
<path fill-rule="evenodd" clip-rule="evenodd" d="M36.5952 59.0491V48.986H48.0795C48.7519 48.986 49.3495 49.3178 49.718 49.8287C52.4298 46.2111 54.3179 41.8622 55.0887 37.2257H36.5952V27.5458C34.6513 27.4474 32.6751 27.3901 30.7165 27.3901C28.7652 27.3901 26.789 27.4474 24.8495 27.5458V37.2257H6.3457C7.11797 41.8652 9.00755 46.2184 11.7238 49.8375C12.0879 49.3193 12.6898 48.986 13.3711 48.986H24.8495V59.0491C26.7288 59.5673 28.683 59.8507 30.715 59.8507V59.9329H30.7238V59.8507C32.7529 59.8522 34.7173 59.5688 36.5952 59.0491ZM49.649 46.5502L47.1413 45.361L46.2516 47.9597L45.3207 45.3463L42.8512 46.5502L44.0449 44.0425L41.4461 43.1528L44.0537 42.2176L42.8497 39.7466L45.3604 40.9373L46.2486 38.343L47.1809 40.949L49.6461 39.7466L48.4568 42.2572L51.0526 43.1513L48.4392 44.0807L49.649 46.5502ZM23.1273 38.6762H27.9709H28.269C29.3745 38.6762 30.2261 39.5263 30.2261 40.6172V47.0612C29.8664 46.6369 29.3231 46.3667 28.7197 46.3667C28.639 46.3667 24.6425 46.3682 23.1273 46.3682V38.6762ZM24.2094 44.2363H28.9957V44.9587H24.2094V44.2363ZM24.2094 42.2528H28.9957V42.9796H24.2094V42.2528ZM24.2094 40.2663H28.9957V40.9931H24.2094V40.2663ZM22.5488 45.5695V46.3667H21.4624V45.5695H22.5488ZM22.5488 43.4332V44.2363H21.4624V43.4332H22.5488ZM22.5488 41.3029V42.1001H21.4624V41.3029H22.5488ZM22.5488 39.1666V39.9683H21.4624V39.1666H22.5488ZM33.4664 38.6762H38.31V46.3682C36.7919 46.3682 32.7925 46.3667 32.7176 46.3667C32.1127 46.3667 31.5739 46.6369 31.2098 47.0612V40.6172C31.2098 39.5263 32.0643 38.6762 33.1684 38.6762H33.4664ZM37.2265 44.9616H32.4431V44.2393H37.2265V44.9616ZM37.2265 42.9796H32.4431V42.2528H37.2265V42.9796ZM37.2265 40.9945H32.4431V40.2692H37.2265V40.9945ZM38.8856 45.5695H39.975V46.3667H38.8856V45.5695ZM38.8856 43.4332H39.975V44.2363H38.8856V43.4332ZM38.8856 41.3029H39.975V42.1001H38.8856V41.3029ZM38.8856 39.1666H39.975V39.9683H38.8856V39.1666ZM34.1198 37.3637L31.6165 36.1774L30.7223 38.7731L29.7915 36.1612L27.3264 37.3637L28.5127 34.8574L25.9184 33.9648L28.5274 33.031L27.3264 30.5659L29.8297 31.7536L30.7209 29.1564L31.6503 31.7698L34.1183 30.5673L32.9276 33.0721L35.5263 33.9648L32.9158 34.8956L34.1198 37.3637ZM34.1183 56.4063L31.6135 55.2156L30.7238 57.8202L29.7915 55.198L27.3264 56.4048L28.5156 53.8986L25.9198 53.003L28.5259 52.0707L27.3264 49.607L29.8282 50.7919L30.7238 48.1946L31.6561 50.808L34.1183 49.607L32.932 52.1103L35.5278 53.0015L32.9173 53.9353L34.1183 56.4063ZM11.7854 46.5502L12.9952 44.0807L10.3833 43.1513L12.9791 42.2572L11.7854 39.7466L14.2549 40.949L15.1873 38.343L16.0799 40.9373L18.5847 39.7466L17.3822 42.2176L19.9868 43.1528L17.3925 44.0425L18.5847 46.5502L16.1137 45.3463L15.1873 47.9597L14.2975 45.361L11.7854 46.5502Z" fill="#151515"/>
</g>
<defs>
<clipPath id="clip0_604_163">
<rect width="188" height="66" fill="white" transform="translate(0.179688 0.5)"/>
</clipPath>
</defs>
</svg>
