<svg width="201" height="63" viewBox="0 0 201 63" fill="none" xmlns="http://www.w3.org/2000/svg">
<g clip-path="url(#clip0_604_102)">
<mask id="mask0_604_102" style="mask-type:luminance" maskUnits="userSpaceOnUse" x="0" y="0" width="201" height="63">
<path d="M200.064 0.165039H0.180176V62.7736H200.064V0.165039Z" fill="white"/>
</mask>
<g mask="url(#mask0_604_102)">
<path d="M84.324 15.2641H84.2779L81.6513 29.6106H78.057L74.6777 12.1152H77.5501L79.8849 25.6016H79.931L82.4347 12.1152H86.1672L88.6556 25.6016H88.7017L91.144 12.1152H93.9088L90.4681 29.6106H86.8124L84.324 15.2641Z" fill="#151515"/>
<path d="M98.993 16.4929C101.497 16.4929 104.384 17.8753 104.384 23.1439C104.384 28.5661 101.497 29.8103 98.993 29.8103C96.4893 29.8103 93.5708 28.5508 93.5708 23.1439C93.5708 17.8753 96.4893 16.4929 98.993 16.4929ZM98.993 27.5984C100.898 27.5984 101.328 25.2944 101.328 23.1286C101.328 20.9781 100.898 18.6894 98.993 18.6894C97.0883 18.6894 96.6275 20.9781 96.6275 23.1286C96.6275 25.2944 97.0883 27.5984 98.993 27.5984Z" fill="#151515"/>
<path d="M106.228 18.8277C106.228 18.0289 106.197 17.2763 106.136 16.6926H108.808C108.839 17.476 108.901 18.2747 108.901 19.0427H108.947C109.3 18.0443 110.237 16.4929 112.08 16.4929C112.28 16.4929 112.418 16.539 112.587 16.5697V19.4728C112.326 19.396 112.065 19.3499 111.758 19.3499C110.544 19.3499 109.208 20.1333 109.208 22.5295V29.5953H106.243V18.8277H106.228Z" fill="#151515"/>
<path d="M114.445 10.8096H117.41V29.6106H114.445V10.8096Z" fill="#151515"/>
<path d="M129.76 10.8096V27.414C129.76 28.3357 129.79 29.1498 129.852 29.6259H127.087C127.041 29.2573 126.995 28.5046 126.995 27.6137H126.918C126.442 28.7197 125.551 29.8256 123.646 29.8256C120.59 29.8256 119.33 26.7689 119.33 23.1746C119.33 18.9659 120.928 16.5082 123.585 16.5082C125.351 16.5082 126.334 17.5681 126.764 18.5665H126.811V10.8096H129.76ZM124.46 27.5216C126.196 27.5216 126.795 25.5401 126.795 23.1132C126.795 20.6094 126.119 18.7816 124.506 18.7816C122.863 18.7816 122.279 20.4558 122.279 23.0517C122.279 26.0163 122.74 27.5216 124.46 27.5216Z" fill="#151515"/>
<path d="M139.514 12.1152H142.57V19.2424H147.516V12.1152H150.573V29.6106H147.516V21.8844H142.57V29.6106H139.514V12.1152Z" fill="#151515"/>
<path d="M161.909 28.9808C161.294 29.2573 160.004 29.8103 158.238 29.8103C154.275 29.8103 152.554 26.8304 152.554 23.3436C152.554 19.4882 154.49 16.4929 157.623 16.4929C160.28 16.4929 162.538 18.1211 162.538 23.3897V23.9887H155.427C155.427 26.2006 156.256 27.5216 158.56 27.5216C160.373 27.5216 161.233 26.9379 161.786 26.5232L161.909 28.9808ZM159.666 22.038C159.666 19.7493 158.944 18.5973 157.608 18.5973C156.056 18.5973 155.411 20.333 155.411 22.038H159.666Z" fill="#151515"/>
<path d="M165.181 17.4453C166.01 17.0459 167.193 16.4929 169.067 16.4929C172.892 16.4929 173.767 18.4437 173.767 21.6847V27.3219C173.767 28.2435 173.859 29.1037 173.936 29.6106H171.263C171.125 29.1037 171.094 28.4893 171.094 27.8595H171.048C170.311 28.9194 169.374 29.8103 167.608 29.8103C165.703 29.8103 163.937 28.4279 163.937 26.0317C163.937 22.5295 166.655 21.6386 170.403 21.6386H171.002V21.1624C171.002 19.8875 170.403 18.7048 168.714 18.7048C167.239 18.7048 165.918 19.4575 165.35 19.9643L165.181 17.4453ZM171.018 23.2975H170.756C168.222 23.2975 166.717 23.8505 166.717 25.7245C166.717 26.9072 167.454 27.7059 168.606 27.7059C170.372 27.7059 171.018 26.3235 171.018 24.0195V23.2975Z" fill="#151515"/>
<path d="M176.686 10.8096H179.65V29.6106H176.686V10.8096Z" fill="#151515"/>
<path d="M183.352 14.0353L186.316 13.083V16.6927H188.774V18.9814H186.316V25.6785C186.316 27.0609 186.792 27.4602 187.653 27.4602C188.175 27.4602 188.559 27.3066 188.774 27.1838V29.3956C188.328 29.626 187.683 29.8257 186.792 29.8257C184.596 29.8257 183.352 28.7659 183.352 26.0625V18.9967H181.401V16.708H183.352V14.0353Z" fill="#151515"/>
<path d="M190.31 10.8096H193.275V18.3515H193.351C193.874 17.5527 194.565 16.4929 196.408 16.4929C199.204 16.4929 200.033 18.674 200.033 21.2853V29.6106H197.069V21.869C197.069 19.8875 196.592 19.058 195.379 19.058C193.828 19.058 193.275 20.4405 193.275 22.0994V29.6259H190.31V10.8096Z" fill="#151515"/>
<path d="M81.206 34.2034C84.662 34.2034 87.8416 36.9068 87.8416 43.2045C87.8416 49.5022 84.662 52.2056 81.206 52.2056C77.7499 52.2056 74.5703 49.5022 74.5703 43.2045C74.5703 36.9221 77.7345 34.2034 81.206 34.2034ZM81.206 49.748C83.1414 49.748 84.6927 48.0123 84.6927 43.2045C84.6927 38.3967 83.1414 36.661 81.206 36.661C79.2706 36.661 77.7192 38.3967 77.7192 43.2045C77.7192 48.0276 79.2706 49.748 81.206 49.748Z" fill="#151515"/>
<path d="M89.8383 41.177C89.8383 40.3783 89.8075 39.6256 89.7461 39.0419H92.4188C92.4495 39.8253 92.5109 40.6241 92.5109 41.3921H92.557C92.9103 40.3937 93.8473 38.8269 95.6905 38.8269C95.8749 38.8269 96.0285 38.873 96.1974 38.9037V41.8068C95.9363 41.73 95.6752 41.6839 95.368 41.6839C94.1545 41.6839 92.8182 42.4673 92.8182 44.8635V51.9292H89.8536V41.177H89.8383Z" fill="#151515"/>
<path d="M98.0252 53.9722C98.7164 54.3716 100.099 55.0781 101.65 55.0781C104.446 55.0781 104.891 53.0506 104.891 51.023V49.7942H104.845C104.369 50.7926 103.524 51.9754 101.604 51.9754C99.8838 51.9754 97.3032 50.7773 97.3032 45.5548C97.3032 41.9912 98.5167 38.8577 101.742 38.8577C103.54 38.8577 104.369 39.9329 104.983 41.0695H105.076C105.076 40.3937 105.152 39.7332 105.168 39.0574H107.856C107.81 39.7332 107.764 40.4091 107.764 41.0849V50.6083C107.764 54.648 106.596 57.5358 102.08 57.5358C100.13 57.5358 98.5781 57.0135 97.8562 56.737L98.0252 53.9722ZM102.633 49.6867C104.492 49.6867 105.229 48.2889 105.229 45.3551C105.229 42.6517 104.246 41.1924 102.848 41.2232C101.297 41.2539 100.698 42.7592 100.698 45.3858C100.698 48.3964 101.619 49.6867 102.633 49.6867Z" fill="#151515"/>
<path d="M110.974 39.7946C111.804 39.3953 112.986 38.8423 114.86 38.8423C118.685 38.8423 119.561 40.793 119.561 44.0341V49.6713C119.561 50.5929 119.653 51.4531 119.73 51.96H117.057C116.919 51.4531 116.888 50.8387 116.888 50.2089H116.842C116.105 51.2688 115.168 52.1597 113.401 52.1597C111.496 52.1597 109.73 50.7772 109.73 48.381C109.73 44.8789 112.449 43.988 116.197 43.988H116.796V43.5118C116.796 42.2369 116.197 41.0542 114.507 41.0542C113.032 41.0542 111.711 41.8068 111.143 42.3137L110.974 39.7946ZM116.796 45.6469H116.535C114 45.6469 112.495 46.1999 112.495 48.0738C112.495 49.2566 113.232 50.0553 114.384 50.0553C116.151 50.0553 116.796 48.6729 116.796 46.3688V45.6469Z" fill="#151515"/>
<path d="M122.556 41.177C122.556 40.3783 122.525 39.6257 122.463 39.042H125.228C125.259 39.6871 125.32 40.3783 125.32 41.0234H125.397H125.366C125.797 40.2401 126.626 38.8423 128.638 38.8423C131.434 38.8423 132.263 41.0234 132.263 43.6347V51.96H129.299V44.2184C129.299 42.2369 128.823 41.4075 127.609 41.4075C126.058 41.4075 125.505 42.7899 125.505 44.4334V51.96H122.54V41.177H122.556Z" fill="#151515"/>
<path d="M134.936 33.5583H137.993V36.615H134.936V33.5583ZM134.982 39.042H137.947V51.96H134.982V39.042Z" fill="#151515"/>
<path d="M140.696 49.2717L145.95 41.4073H140.865V39.0571H148.914V41.7145L143.753 49.6097H149.083V51.9598H140.696V49.2717Z" fill="#151515"/>
<path d="M151.878 39.7946C152.708 39.3953 153.891 38.8423 155.765 38.8423C159.589 38.8423 160.465 40.793 160.465 44.0341V49.6713C160.465 50.5929 160.557 51.4531 160.634 51.96H157.961C157.823 51.4531 157.792 50.8387 157.792 50.2089H157.746C157.009 51.2688 156.072 52.1597 154.305 52.1597C152.401 52.1597 150.634 50.7772 150.634 48.381C150.634 44.8789 153.353 43.988 157.101 43.988H157.7V43.5118C157.7 42.2369 157.101 41.0542 155.411 41.0542C153.937 41.0542 152.616 41.8068 152.047 42.3137L151.878 39.7946ZM157.715 45.6469H157.454C154.92 45.6469 153.414 46.1999 153.414 48.0738C153.414 49.2566 154.152 50.0553 155.304 50.0553C157.07 50.0553 157.715 48.6729 157.715 46.3688V45.6469Z" fill="#151515"/>
<path d="M163.89 36.3845L166.855 35.4321V39.0418H169.313V41.3305H166.855V48.0276C166.855 49.41 167.331 49.8094 168.191 49.8094C168.714 49.8094 169.098 49.6558 169.313 49.5329V51.7448C168.852 51.9752 168.222 52.1748 167.331 52.1748C165.135 52.1748 163.89 51.115 163.89 48.4116V41.3458H161.924V39.0572H163.875V36.3845H163.89Z" fill="#151515"/>
<path d="M171.34 33.5583H174.397V36.615H171.34V33.5583ZM171.724 39.042H174.688V51.96H171.724V39.042Z" fill="#151515"/>
<path d="M182.368 38.8423C184.872 38.8423 187.76 40.2247 187.76 45.4933C187.76 50.9155 184.872 52.1597 182.368 52.1597C179.865 52.1597 176.946 50.9001 176.946 45.4933C176.946 40.2247 179.865 38.8423 182.368 38.8423ZM182.368 49.9631C184.273 49.9631 184.703 47.6591 184.703 45.4933C184.703 43.3429 184.273 41.0542 182.368 41.0542C180.464 41.0542 180.003 43.3275 180.003 45.4933C180.003 47.6437 180.448 49.9631 182.368 49.9631Z" fill="#151515"/>
<path d="M190.341 41.177C190.341 40.3783 190.31 39.6257 190.249 39.042H193.013C193.044 39.6871 193.106 40.3783 193.106 41.0234H193.182H193.152C193.582 40.2401 194.411 38.8423 196.423 38.8423C199.219 38.8423 200.048 41.0234 200.048 43.6347V51.96H197.099V44.2184C197.099 42.2369 196.623 41.4075 195.41 41.4075C193.858 41.4075 193.305 42.7899 193.305 44.4334V51.96H190.341V41.177Z" fill="#151515"/>
<path d="M39.2109 16.6466C38.0742 16.1704 36.8608 15.8325 35.6166 15.6635C35.6166 15.771 35.6166 15.8785 35.6012 15.9861C36.784 16.155 37.936 16.4622 39.0266 16.923C39.1034 16.8309 39.1495 16.7387 39.2109 16.6466ZM36.1235 24.1577L35.6934 24.1731L35.5552 24.3881H35.463L35.4476 25.0947L35.8931 24.895L36.1235 24.1577ZM37.6442 24.4342L37.4906 24.5417L37.4291 24.4496L37.0144 25.1408L37.383 25.0794L37.3984 24.8182L37.6749 24.5417L37.8899 24.3421L37.7517 24.1731L37.6442 24.4342ZM38.1357 24.0502H38.4583L38.5197 23.912L38.2432 23.8505L38.1357 23.6816L37.7824 23.6969L37.9514 23.9427V24.2192L38.1357 24.0502ZM35.5244 34.3877L35.5705 34.5567L35.5552 34.6335C36.2617 34.2802 36.3693 34.0805 36.3539 33.9883C36.3232 33.7118 35.9084 33.42 35.3248 33.1435C35.3248 33.3586 35.3248 33.5429 35.3094 33.7118L35.4323 33.8347C35.3862 33.8501 35.3555 33.8654 35.3094 33.8808C35.3094 34.0037 35.3094 34.1266 35.3094 34.2341C35.3862 34.2034 35.4476 34.188 35.5244 34.1573V34.3877ZM35.7856 33.6658C35.7856 33.6811 35.8009 33.6658 35.7856 33.6658V33.6658ZM23.0826 30.6244L23.2669 31.116L23.144 31.2849L23.1901 31.546L23.1133 31.9147L22.9751 32.0069L23.2055 32.6213L23.2823 32.5905L23.2055 32.0529L23.3898 31.1467L23.2516 30.6859L23.0826 30.6244ZM23.2823 32.7288L23.1901 32.8056L23.1133 32.8978L22.9444 32.5445L22.8676 32.6213L22.9444 32.9285L23.0365 33.1128L22.9597 33.2357L23.144 33.4661L23.2669 33.7272L23.3591 33.6965L23.3898 33.2971L23.2976 33.0821L23.2823 32.7288ZM35.1558 43.7575C35.1558 43.7728 35.1712 43.7728 35.1712 43.7728C35.1712 43.7575 35.1712 43.7575 35.1558 43.7575ZM31.5308 25.2022L31.5615 25.3558C31.2696 25.4941 31.0085 25.6784 30.7474 25.8781C30.7474 26.216 30.8703 26.5847 31.1314 26.9226C31.2389 27.0608 31.3772 27.1837 31.5308 27.3066L31.9916 27.1069L31.9608 25.1101L31.8072 25.1254L31.8533 24.895L31.9608 24.7414V24.5417L31.8687 24.6186L31.6536 24.9411L31.5308 25.2022ZM31.5615 25.7859L31.5461 25.7245C31.5615 25.7245 31.5615 25.7091 31.5768 25.7091L31.5615 25.7859ZM22.5757 18.9352C22.5911 18.7816 22.6218 18.6588 22.6525 18.5512L22.4682 18.3669C22.3299 18.3976 22.1763 18.413 22.0381 18.413L22.5757 18.9352ZM30.133 31.3464C30.0408 31.3156 29.9333 31.2696 29.8411 31.2388L29.8565 31.5L30.133 31.3464ZM29.8411 31.2235C29.7797 31.1928 29.7182 31.1774 29.6414 31.1467L29.6107 31.5614L29.8411 31.2235ZM46.507 31.5921L45.8926 31.8072L46.0462 32.0529L46.4763 32.099L46.507 31.5921ZM55.3392 20.5481C54.1565 17.7525 52.4668 15.2334 50.301 13.083C48.1506 10.9325 45.6315 9.22754 42.8359 8.0448C40.6241 7.10782 38.3047 6.52413 35.9238 6.30908C35.9084 6.43196 35.8931 6.53949 35.8777 6.63165C38.2432 6.84669 40.5319 7.43038 42.7131 8.352C45.4472 9.50402 47.9048 11.1629 50.0092 13.2519L47.3058 15.9553V15.771L47.0907 15.7864L46.8296 15.6481L46.4302 15.5406L46.9832 15.4485L46.8757 15.2949H46.5685L46.6607 15.0491L46.3995 14.3886L45.693 13.5284L45.0017 13.083L44.6177 12.8679L44.3259 12.9294V12.745L43.6654 12.4532L43.4043 12.699C43.8958 13.5284 44.1416 14.3886 44.1876 15.1566C44.2184 15.7403 44.1876 16.2933 44.1108 16.8309L44.3412 16.6926L45.0478 17.9829L44.5563 18.029L44.9096 18.3823L44.0801 19.2117L43.6654 18.6895L43.7115 18.2901C43.604 18.5666 43.4657 18.8277 43.3121 19.0735L43.3582 19.181L43.8804 19.2424L43.9265 19.35L43.6808 19.5957C43.5272 19.4575 43.3889 19.3193 43.2353 19.181C43.1739 19.2732 43.1124 19.3653 43.051 19.4575C43.1892 19.5804 43.3275 19.7033 43.4504 19.8415L40.3629 22.8982C40.1172 22.6524 39.8407 22.422 39.5796 22.207C39.472 22.2531 39.3492 22.3145 39.2416 22.3606C39.5642 22.6064 39.856 22.8521 40.1479 23.1286L39.7485 23.528L39.81 23.3129L39.5028 23.4051L39.1802 23.359V23.0979L38.8269 23.3129L38.4583 23.6662L38.6272 23.7737L38.9959 23.528L39.3645 23.6662V23.7277L39.6103 23.6662L38.7501 24.5264L37.7517 24.7414L37.4752 25.1101L37.2755 25.233L37.2602 25.4326L37.4138 25.4173L37.5674 25.5402L37.5366 25.7552L37.4598 25.832L37.2141 25.7859L36.6304 25.8781C36.5229 25.7859 36.4 25.7091 36.2925 25.6323L36.2617 25.5863L36.0928 25.5094C35.8931 25.3866 35.678 25.2944 35.463 25.2022L35.4476 26.4464C35.4476 26.8458 35.4323 27.2144 35.4323 27.5677L35.5705 27.5063L35.6934 27.6138L35.4323 27.8749C35.4323 28.0439 35.4323 28.1975 35.4169 28.3511L35.9084 27.8596L35.8009 28.1975L35.9392 28.2436L36.0467 28.7658L36.3232 29.0423L35.678 28.689L35.632 28.9348C36.4768 29.2881 37.6442 29.795 38.5965 30.5015C40.025 31.5768 40.7623 33.0667 40.5626 34.4799C40.4244 35.509 39.8253 36.3845 38.8576 37.0143L38.8883 37.1218L38.6887 37.3676L38.3354 37.4137L38.1971 37.6287L37.5213 37.9052L36.9069 37.8898L36.7379 38.151L36.8454 38.3199C36.7686 38.3507 36.6765 38.3814 36.5997 38.4121L36.1696 38.4582L36.062 38.2892L35.5859 38.3507C35.4937 38.3814 35.4169 38.4121 35.3248 38.4428V38.7807C35.3248 38.8883 35.3094 39.6563 35.2787 40.7469C36.8301 41.5149 38.7501 42.7898 38.6579 46.169C38.6579 46.169 38.6272 46.7835 38.4429 47.2289L39.1187 47.4286C37.8131 47.828 36.4461 48.0737 35.0483 48.1812C35.0483 48.2888 35.0483 48.4117 35.0329 48.5038C36.4921 48.3963 37.936 48.1352 39.3338 47.7051L39.6256 47.7972L39.9328 48.0584L40.3015 47.9201L40.8852 47.7819L41.1309 47.5668L41.7914 47.2903L42.4519 46.8295L43.1892 46.0922L43.2199 46.0001C44.5409 45.2321 45.7698 44.2951 46.8757 43.2199L49.917 46.2612C47.828 48.3041 45.4165 49.917 42.7438 51.0536C39.8868 52.2671 36.8608 52.8661 33.7273 52.8661C30.5938 52.8661 27.5678 52.2517 24.7108 51.0536C22.0227 49.917 19.6112 48.3041 17.5222 46.2612L20.5635 43.2199C22.2531 44.8634 24.2039 46.169 26.3851 47.0907C28.3358 47.9201 30.3787 48.3963 32.4831 48.5345C32.4831 48.427 32.4831 48.3195 32.4677 48.212C28.0747 47.9201 23.9735 46.0922 20.7939 43.0048L21.439 42.3597L21.992 42.8359L23.144 42.7437L23.6048 42.2829L24.2346 42.3136L24.8183 42.3904L25.1255 42.16L25.0948 41.8835L24.7722 41.5149L24.3729 40.7469L23.9735 40.5779L23.7277 40.1017L23.8813 39.9481C26.2007 42.1907 29.1653 43.5578 32.3449 43.865C32.3449 43.7575 32.3449 43.65 32.3295 43.5424C29.2421 43.2352 26.3697 41.9142 24.1117 39.7331L27.1684 36.6764C27.9672 37.4444 28.9042 38.0588 29.9333 38.5196C29.964 38.4121 29.9794 38.3046 30.0255 38.1971C29.0578 37.767 28.1669 37.1833 27.3988 36.4613L30.4863 33.3739C30.9624 33.804 31.5308 34.1419 32.1605 34.357V34.0037C31.6229 33.804 31.1468 33.5122 30.7167 33.1282L30.9164 32.9285H31.0239L31.2082 32.7442L31.6229 32.7902L31.8687 32.652L32.1298 32.6213L32.1145 32.0683L31.1775 31.7611L31.1468 31.7918L30.7627 31.8533L30.4863 32.2373L30.3634 32.7288V32.7595C29.9794 32.3294 29.6722 31.8379 29.4878 31.2849L29.5186 31.1467C29.2421 31.0238 28.981 30.8856 28.7352 30.732L28.5201 30.8395L28.2897 30.7012L27.9365 30.8395L27.7521 30.6705L27.9672 30.4555L28.2437 30.394C27.276 29.6721 26.6923 28.7658 26.4004 27.537C26.2161 26.7997 26.17 26.0931 26.2315 25.4173L25.8014 25.5863L25.5249 25.617C25.8167 25.0486 26.1547 24.5264 26.5387 24.0349C26.6769 23.6509 26.8612 23.2822 27.0763 22.9443C27.0609 22.9596 27.0609 22.9596 27.0456 22.975L23.9889 19.9183C26.1239 17.8139 28.812 16.4776 31.7304 16.0629C31.7304 15.9553 31.7304 15.8478 31.7304 15.7403C28.7198 16.155 25.955 17.5221 23.7585 19.7033L23.0212 18.966C22.9597 19.0888 22.9136 19.1964 22.8829 19.2732L23.5434 19.9337C20.9936 22.5756 19.5805 26.0317 19.5805 29.7182H15.1567C15.172 24.8643 17.0306 20.3177 20.4099 16.8462L21.608 18.0443C21.6848 18.0597 21.7923 18.0597 21.8845 18.0443C21.9459 18.0443 21.992 18.029 22.0535 18.0136L20.6403 16.6005C21.5927 15.6635 22.6218 14.834 23.7277 14.1275C23.7892 13.9431 23.8813 13.7588 23.9735 13.5899C22.6832 14.3732 21.4851 15.2949 20.3945 16.3701L17.3532 13.3287C19.4729 11.2244 21.9306 9.56546 24.6647 8.41344C26.8459 7.49182 29.1192 6.92349 31.454 6.69309L31.4079 6.37052C29.0424 6.60093 26.7383 7.16926 24.5265 8.10624C21.7463 9.22754 19.2425 10.9172 17.0767 13.083C14.9263 15.2334 13.2213 17.7525 12.0385 20.5481C10.8097 23.4512 10.1953 26.5232 10.1953 29.6875C10.1953 32.8517 10.8097 35.9391 12.0385 38.8268C13.2367 41.6224 14.9263 44.1415 17.0767 46.2919C19.2272 48.4424 21.7463 50.1474 24.5418 51.3301C27.4449 52.5589 30.517 53.1733 33.6812 53.1733C36.8454 53.1733 39.9328 52.5589 42.8206 51.3301C45.6162 50.1474 48.1352 48.4577 50.2857 46.2919C52.4361 44.1415 54.1411 41.6224 55.3239 38.8268C56.5527 35.9237 57.1671 32.8517 57.1671 29.6875C57.1824 26.5232 56.5527 23.4358 55.3392 20.5481ZM20.5328 42.7283C20.2102 42.4058 19.903 42.0525 19.5958 41.7146L19.8877 41.8374L20.1641 41.6685L20.9322 42.16L21.055 42.2061L20.5328 42.7283ZM21.0243 32.3909L20.5328 32.5137L20.3177 32.2987L20.1795 32.2065L20.0566 32.0376C19.9491 31.3617 19.8723 30.6859 19.8569 29.9793H21.7002L21.6695 30.0715L21.4083 30.5169L21.2394 30.5323L20.9322 31.5153L21.2086 31.9608L21.0243 32.3909ZM22.4067 38.5657L22.3607 38.4428L22.5911 38.4735C22.6372 38.535 22.6832 38.5964 22.7293 38.6425L22.4067 38.5657ZM23.5434 39.7177L23.3591 39.3798C23.4359 39.472 23.528 39.5641 23.6048 39.6409L23.5434 39.7177ZM23.8506 39.4105C23.5741 39.134 23.3284 38.8575 23.0826 38.5657L23.2208 38.0742L23.1901 37.5058L22.7447 36.7378V35.9391L22.5757 35.4322L22.6986 35.2172L22.2378 34.3723L22.2839 34.0651L22.0227 33.5736L21.7616 33.4968L22.1763 33.42L22.0535 33.251L21.777 32.6366L21.2854 32.4984L21.4083 32.099L21.224 31.4692L21.4544 30.9316L22.0381 30.8856L22.2071 30.6091L22.1456 29.9486H22.5143L22.7447 30.0254L23.0212 30.1636L23.0058 29.9486H24.1578C24.1732 30.2404 24.1885 30.5323 24.2193 30.8241L24.2039 30.8395L23.9428 30.8088L23.5741 31.2235L23.8967 31.3003L24.25 31.0852C24.5572 33.1128 25.4942 34.9253 26.8766 36.3231L23.8506 39.4105ZM22.5757 29.3034L22.6986 28.5354L23.3284 28.2129L24.081 28.3972L24.2346 28.689C24.2039 29.0116 24.1732 29.3342 24.1732 29.6721H23.0212V29.5799L22.5757 29.3034ZM25.8475 31.6536L26.2929 31.8379L26.6001 32.2065L26.7383 32.1144L27.2606 32.4369L27.4449 32.6673L27.0916 32.5291L27.0148 32.6673L27.322 32.8363L27.6446 33.0974V32.9285L27.5678 32.6673L27.706 32.4369L27.875 32.3448L27.5524 31.9454L27.9211 32.1297L28.1515 32.4369L28.3205 32.8517L28.643 32.9285L27.9365 33.0514L28.1976 33.6197L28.428 33.6504L28.4741 33.42L28.3973 33.1435L28.7045 33.1282L28.9349 32.7288L29.027 32.1451L29.196 32.0683L29.3342 31.8379C29.5493 32.2833 29.8411 32.6981 30.1944 33.0514L27.1224 36.1234C25.786 34.7563 24.8644 32.9746 24.5879 30.9931L24.7569 31.0084L25.3406 31.5921L25.8475 31.6536ZM25.2638 26.0317C25.2945 25.9703 25.3098 25.9088 25.3406 25.8474L25.4327 25.832L25.3406 26.0163L25.2638 26.0317ZM23.7277 20.1026L26.7844 23.1593C26.0779 23.8966 25.4942 24.7568 25.0641 25.6938L24.8951 25.6631L25.0334 25.4787L24.6801 25.7859L24.4036 25.9703L24.3268 25.8474L23.8353 26.0317L23.866 26.216L24.1271 26.0471L24.5725 26.0317L24.9719 25.9242C24.9566 25.9703 24.9258 26.0163 24.9105 26.0624L24.3882 26.4157L24.2653 26.2928L23.6509 26.7383L23.1133 26.6461L22.76 27.0608L22.2224 28.2589L22.3146 28.5815L21.8691 29.1652L21.7923 29.6106V29.6414H19.8569C19.8723 26.0624 21.2394 22.6832 23.7277 20.1026ZM19.5344 29.9793C19.5497 30.6398 19.6112 31.3003 19.7033 31.9454L19.4729 31.8225V32.1297L19.304 32.0529L19.1657 31.8225L18.8432 31.9608L18.7971 32.2373L18.0444 33.3893L17.8294 33.4354L17.7372 35.3554L17.1996 35.6165L17.0306 35.5397L16.7695 35.6626L16.1551 35.6165L16.0937 35.5858C15.4946 33.804 15.172 31.9147 15.1413 29.9793H19.5344ZM12.3458 20.671C13.4824 17.9983 15.0952 15.5867 17.1382 13.4977L20.1795 16.539C18.536 18.2287 17.2303 20.1794 16.3241 22.3452C15.341 24.6646 14.8495 27.1223 14.8495 29.6414H10.5486C10.5332 26.5386 11.1477 23.5126 12.3458 20.671ZM12.3458 38.7039C11.1784 35.9391 10.564 33.0053 10.5332 29.9793H14.8341C14.8648 31.884 15.172 33.7426 15.7557 35.5397L15.4332 35.7548L14.5884 35.294L14.404 35.4783L14.1736 35.3554L14.0354 35.4783L14.1275 35.7855L13.636 35.7548L13.3595 35.5858L13.3903 35.3247L13.3135 35.1096H13.1752L13.2059 35.34L13.1752 35.4783L13.0523 35.4322L12.699 35.6012L12.9294 35.7855L12.6222 35.7087L12.484 35.8776L12.653 35.9545H12.4379V36.3077L12.5301 36.4921L12.653 36.5842H12.4686L12.5608 36.8914L12.7451 36.9682L12.8066 37.0911L12.9294 37.3062L13.0062 37.4905L12.5915 37.2294L12.7605 37.6748L12.484 37.0604V37.4598L12.7451 38.0742L12.9602 38.5964L13.6207 39.8867L13.5439 39.6256L13.037 38.3814V37.9206L13.2981 37.5058L14.1429 38.5043L14.2658 38.4121L14.1275 37.7823L14.2965 37.9052L14.5576 38.3507L14.9724 38.4735L15.1567 38.75L15.3257 38.7807L15.1874 38.4275L15.3257 38.2431L15.4639 38.7347L15.7711 39.2262L16.0476 39.1801L16.8002 40.4397L17.215 40.5625L17.3378 40.0556L17.5068 40.2707L18.1366 41.1769L18.92 41.392C19.3654 41.9603 19.8416 42.4979 20.3485 43.0048L17.3071 46.0462C15.1567 43.8957 13.5131 41.4381 12.3458 38.7039ZM50.2396 13.4823C52.2825 15.5713 53.8954 17.9829 55.032 20.671C56.2301 23.5126 56.8445 26.5386 56.8445 29.6414H52.5436C52.5436 27.1069 52.0368 24.6493 51.0691 22.3452C50.9769 22.1148 50.8694 21.8998 50.7772 21.6847L50.8847 21.4543L51.1305 21.6079L51.2227 21.3468L49.7788 18.9967L49.4716 18.9045L47.3211 16.4469V16.4008L50.2396 13.4823ZM43.8804 19.8415L44.2491 20.2562L44.4488 19.6418L44.1416 19.5957V19.565L45.0939 18.6127L45.7237 19.2578L46.3227 19.2117L46.5224 19.5497L46.5839 20.0565L47.782 20.7631L48.1199 20.717L48.9186 21.6233L49.1029 22.0841L49.6559 22.6678L50.301 22.6524L50.5929 22.0534C51.6527 24.4035 52.2211 26.9687 52.2211 29.6414H47.8588C47.8588 28.8119 47.782 27.9978 47.6437 27.1991L47.8434 26.8919H47.9509L48.1967 25.8627L48.0277 25.8167L48.0738 25.6477L47.6437 25.6631L47.5515 25.5555L47.4594 25.7552L47.7205 25.9703L47.5208 26.0317L47.444 26.2314C47.3365 25.8167 47.2136 25.4019 47.0754 24.9872L47.3211 24.6186L47.2597 24.1885L47.0447 24.1424L46.9525 23.6662L47.0754 23.5587L46.8296 23.2361L46.4149 23.2822L46.2766 23.19C46.1845 23.0211 46.0923 22.8368 46.0002 22.6678H46.4149L46.3227 22.4528L46.5992 22.3606V22.1455L46.4149 22.1302L46.1384 22.3452L46.0462 22.2531L46.292 21.8844L46.0923 21.7462L45.8466 22.0995L45.5547 21.9612C45.3243 21.6079 45.0785 21.27 44.8174 20.9321V20.8399L44.7867 20.886C44.4949 20.5327 44.203 20.1948 43.8804 19.8415ZM44.9557 28.3357L45.5701 27.9364L46.3074 27.8749L46.507 27.4602L46.7528 27.322L47.0754 26.7536L47.1522 26.4618C47.1829 26.5693 47.1983 26.6768 47.229 26.7844L47.1061 27.1223L47.1522 27.2144L46.9832 27.5677L46.9986 27.7367L46.6453 28.2129L46.7067 28.5201L46.845 28.5354L47.1983 27.9978V27.6753L47.3672 27.6292L47.3826 27.5985C47.4901 28.2743 47.5362 28.9502 47.5362 29.6414H44.2491L44.1723 29.5799L44.1876 29.3188L44.4641 29.2113L44.6792 28.9041L45.2014 28.8426V28.6276L44.9557 28.3357ZM45.8312 22.3299L45.8158 22.3759C45.8005 22.3452 45.7851 22.3145 45.7544 22.2838L45.8312 22.3299ZM43.6347 20.0873C43.9572 20.4252 44.2644 20.7785 44.5563 21.1471L44.3873 21.2393L44.1876 21.2854L44.4949 21.3775L44.6331 21.2546C44.7713 21.4236 44.8942 21.6079 45.0325 21.7923H44.8789V21.8844L45.0325 21.9305L45.4933 22.6524L45.6161 22.7139C45.6622 22.806 45.7237 22.8982 45.7698 22.9904V23.2822L45.4625 23.6048L45.3704 23.359L45.1093 23.3129L45.2168 23.5894L45.0171 23.7891L45.4933 23.9581L45.693 24.2345L46.077 24.3421L46.0923 24.511L46.4456 24.6032L46.507 25.1408L46.7221 25.1101C46.845 25.4634 46.9525 25.8167 47.0447 26.1853H47.0293L46.8143 26.554L46.507 26.7076L46.292 27.3373L45.7237 27.6599L45.524 27.3066L45.693 26.4771L45.9541 26.2775L45.0785 25.6016L44.6177 25.8474L44.203 26.6922L43.7729 26.4464L43.65 26.0931L43.8958 25.9856L44.0033 26.1392L44.203 26.0778L44.1416 25.8167L43.8651 25.7245L43.8804 25.8935H43.6808L43.4657 25.5709L42.9588 25.064L42.3751 24.6493L41.8375 24.6032L41.7761 24.68C41.4228 24.1117 41.0234 23.5741 40.5626 23.0825L43.6347 20.0873ZM40.1172 23.6048L40.3629 23.359C40.4551 23.4512 40.5319 23.5433 40.6241 23.6509L40.3476 23.8813L40.1018 23.8659L40.0096 23.7737L40.2093 23.6355L40.1172 23.6048ZM40.1172 25.6784L40.4858 25.5402L40.0711 25.2637L40.3168 24.9872L40.2708 24.8336L40.6701 24.6646L40.3015 24.2345L39.8714 24.6339L39.81 24.9104L39.5335 24.7722L39.2263 24.8182L39.1341 24.6186L39.8407 23.912L39.9021 23.9888L40.5165 24.0041L40.7162 23.7584C41.0081 24.0963 41.2692 24.465 41.515 24.8643L41.2077 25.5094L40.7316 25.2483L40.5933 25.2637L40.7316 25.5248L40.8852 25.6323L40.7316 26.001L40.6701 25.832L40.1172 25.6784ZM42.882 37.9513L42.1601 38.5196L42.0526 38.5964L41.9911 38.4889H41.6532L41.1463 38.5964L40.6701 38.3967H40.4244L40.0557 38.1203L39.81 38.1356L39.5949 37.9359L39.2416 37.9206L39.0727 37.6748L38.9191 37.6134C38.9344 37.6134 38.9344 37.598 38.9498 37.598L39.1495 37.6287V37.5212L39.6564 37.6134L39.8253 37.7209L40.3629 37.813L40.409 37.9513H40.8391L41.4228 38.1203L41.5918 38.3967L41.945 38.3814L42.2062 38.1049L42.4212 37.6748L42.7438 36.83L42.6823 36.6764L42.8359 36.5228L42.9742 36.0005L42.882 35.7855L42.9895 35.6165L42.8359 35.4168L42.7899 34.8946L42.4212 34.9868L42.2062 35.294L41.8836 35.2786L41.9297 35.6626L41.6686 35.9852L41.4535 35.8776L41.2538 36.0466L40.7469 36.0927L40.7316 36.0773C40.8391 35.9545 40.9466 35.8316 41.0541 35.7087H41.2845L41.5303 35.6626L41.7607 35.4015L41.8068 35.2018L42.0526 35.1864L42.5134 34.5106L42.882 33.7272L43.8651 33.2664L43.8497 33.0053L43.7268 32.867L43.7883 32.7749L44.0955 32.9285L44.7406 33.0667L45.2629 32.8517L46.1077 32.6827L45.8926 32.0683L45.524 31.6996L45.0632 31.6843L44.4795 30.2711L44.3873 30.3326L44.1723 30.1636L44.3412 30.0561L44.3259 30.01H47.5055C47.4287 33.5736 46.0155 36.9068 43.5118 39.4566L43.4196 39.3644L43.4504 39.2569L43.5579 38.7193L43.4504 37.8745L43.2507 37.3676L43.1124 37.4905L42.882 37.7977V37.9513ZM43.3736 45.4778L43.3889 45.4625L43.5425 45.2013L43.3889 44.802L43.9572 44.3258L43.9112 44.0032L43.4964 43.7882L43.9112 42.9895L44.3873 42.2061L43.819 41.5149L43.6193 41.5763L43.3582 41.5149L43.1124 40.9926L43.0049 41.0387L43.1431 40.5318L43.2199 40.1478C43.3121 40.0556 43.4043 39.9788 43.5118 39.8867L45.4011 41.776L45.4165 41.7914H45.4318L46.6146 42.9741C45.6161 43.9264 44.5256 44.7713 43.3736 45.4778ZM46.4456 42.3443L46.4763 42.1907L46.6914 41.991L46.4917 41.008L46.5378 40.7469L46.3227 40.3321L46.1845 40.1939L46.3227 40.1785L46.1538 39.9328L45.739 39.9174V40.24L45.5854 40.3629L45.693 40.624L45.524 41.1309L45.4011 41.223L45.4472 41.3306L43.7576 39.6409C46.3381 37.045 47.782 33.6197 47.8434 29.9639H52.2057C52.1289 34.7871 50.2396 39.303 46.8296 42.7283L46.4456 42.3443ZM55.032 38.7039C53.88 41.4381 52.2211 43.8957 50.1167 46.0154L47.0754 42.9741C48.7804 41.2538 50.1321 39.2569 51.0691 37.0297C52.0214 34.7871 52.5129 32.4216 52.5436 29.9793H56.8445C56.8138 33.0053 56.1994 35.9391 55.032 38.7039ZM37.2448 46.2612L37.2602 46.2766C37.2602 46.2612 37.2602 46.2612 37.2448 46.2458V46.2612ZM44.3412 12.2382L44.587 12.4225L45.1707 12.6222L45.3704 12.9755H45.524L45.4779 12.5914L45.2936 12.4532L45.3397 12.2535L44.9864 12.0999L44.8481 12.2382L44.6638 12.146L44.756 11.9463L44.3412 12.2382ZM14.7573 40.8544L14.7266 40.6393L14.4962 40.3629L14.358 40.4089L14.6191 40.7315L14.5884 40.8237L14.8034 41.0541L14.9416 41.3613L15.0645 41.3152L14.9416 41.0541L14.7573 40.8544ZM43.7268 18.1211C43.7115 18.1672 43.6961 18.2133 43.6808 18.2594L43.8497 18.3823L44.0187 18.3208L43.7268 18.1211ZM47.5055 22.8828L47.6437 22.9443L47.3211 22.2838L47.1522 22.2377L47.3211 22.5142L47.5055 22.8828ZM46.5224 21.3622L46.8757 21.8998L47.0907 22.0073L46.7221 21.3775L46.5224 21.3622ZM47.782 24.4803L47.9816 24.8336L47.9202 24.9718L48.0892 25.5555L48.2428 25.6016V24.9718L48.0738 24.7568L48.0124 24.1117L47.7052 23.3129L47.6437 23.4512L47.7205 23.912L47.782 24.4803ZM42.7131 24.4342L42.8206 24.2192L42.3444 24.2345L42.1294 24.3881L42.3751 24.4803L42.7131 24.4342ZM46.2766 20.7631L46.4917 20.9782L46.5992 20.9628L46.7682 21.0703L46.7221 20.9321L46.292 20.6249L46.0155 20.3638L46.1384 20.7631H46.2766ZM44.1416 22.6985L44.4027 22.8982L44.7099 22.8368L44.4641 22.7753L44.4027 22.5142V22.3145L44.2644 22.0687L44.1108 22.1302L44.0187 22.0687L43.7576 22.3145L44.1723 22.5296L44.1416 22.6985ZM43.5579 23.8966L43.6654 23.9581L43.8036 23.7584L44.0033 23.4051L43.8958 23.4204L43.7268 23.5126L43.6347 23.0057L43.5272 23.0979L43.6193 23.4051L43.5118 23.6509L43.3582 23.6048L43.1585 23.7277L43.1739 24.0502L43.5579 23.8966ZM43.6654 22.6217V22.3606L43.5118 22.5603L43.5579 22.806L43.6654 22.6217Z" fill="#151515"/>
<path d="M26.0933 62.6047L27.8136 62.7737C27.8136 62.7737 30.0101 57.9505 35.5398 57.7048C39.0881 57.5512 42.1909 59.3329 45.9695 59.6094C50.5161 59.932 53.6035 58.9797 56.2148 56.5067C53.4653 58.012 50.2243 57.3668 46.4764 56.5067C44.0341 55.9537 41.5457 55.7079 39.6871 55.7386C31.1007 55.8308 26.0933 62.6047 26.0933 62.6047Z" fill="#151515"/>
<path d="M52.052 46.6605C51.2532 47.4593 50.1627 48.5191 49.1182 50.7771C48.1044 52.9583 48.089 53.8338 47.106 55.4313C49.3486 54.5864 51.0228 56.2146 56.6908 54.1103C59.3174 53.1426 61.176 50.6696 62.0362 48.5191C60.024 50.347 58.3804 51.2686 55.9842 51.6219C53.6187 51.9752 52.1134 52.1288 50.1319 53.2962C51.3761 51.9752 51.8369 51.2379 52.4974 49.5022C53.204 47.6282 53.0965 46.0154 53.8952 44.5715C53.3115 45.3088 52.8507 45.8618 52.052 46.6605Z" fill="#151515"/>
<path d="M54.9087 43.8649C54.325 46.937 54.494 49.5022 52.9272 51.4683C55.0162 49.7326 57.0592 49.7326 59.8701 48.4884C63.2186 46.8448 64.9851 43.9571 65.9221 39.7637C65.1848 41.6223 63.2647 43.3734 61.145 44.6944C59.3325 45.831 57.3971 46.384 56.0607 48.0276C56.8441 47.0906 57.0438 46.6451 57.2128 45.6006C57.7504 42.759 56.8595 41.1462 57.2742 38.1663C56.8441 39.3951 55.2774 41.8835 54.9087 43.8649Z" fill="#151515"/>
<path d="M58.0884 34.8484C57.8734 39.6716 59.8395 40.6546 58.4263 45.0784C59.6705 43.2966 61.1298 42.759 63.0344 41.0847C65.3999 38.9957 67.366 35.8161 67.1817 31.546C66.7363 32.7441 65.3231 35.0328 63.7717 36.661C62.2203 38.2891 60.9147 40.2399 60.2389 41.5916C61.7902 36.2769 59.01 34.2494 58.6875 31.0544C58.6107 32.2525 58.1652 34.0343 58.0884 34.8484Z" fill="#151515"/>
<path d="M59.0102 29.3649C58.5955 27.7982 58.7644 26.8766 58.4111 25.1255C59.0563 26.6922 62.7735 29.4571 62.3894 34.7871C62.6045 33.804 63.3571 30.8549 64.4477 28.7812C65.3079 27.153 66.1681 25.5248 65.953 23.1133C66.9361 26.2929 66.89 28.1207 66.4599 29.7028C66.0298 31.3003 64.97 32.5138 64.0484 33.7733C63.4493 34.6028 62.1744 36.2156 61.56 37.7363C61.6214 34.4799 59.5632 31.4232 59.0102 29.3649Z" fill="#151515"/>
<path d="M57.8276 22.2532C57.121 20.9168 56.8599 19.8109 55.9536 18.1212C56.5066 18.8432 56.9981 19.2425 58.3959 20.4253C60.3159 22.0535 61.7752 23.8813 62.5278 26.9227C62.5893 25.0334 62.8197 23.8967 63.2037 21.7923C63.557 19.8877 63.4648 17.7219 62.5893 15.3103C64.2789 17.3532 65.7381 21.393 64.924 24.1118C64.2635 26.6923 63.1576 27.9979 62.835 29.8104C61.6676 26.1547 58.7799 24.081 57.8276 22.2532Z" fill="#151515"/>
<path d="M58.7489 18.8738C57.9041 18.1979 55.769 16.8616 54.7399 15.6481C53.6954 14.4346 53.1731 13.2673 52.4512 12.192C53.9872 13.6052 54.8167 14.0199 56.3834 14.9723C57.7966 15.7864 59.7166 16.8769 60.5 18.5819C60.0392 17.2917 59.8088 15.5867 59.6398 14.1582C59.4094 12.0231 58.5339 10.7175 57.8887 9.93408C59.9777 11.6084 61.2526 13.0369 61.8056 16.0628C62.3586 19.0888 61.7288 21.3775 61.9438 23.0057C60.8225 20.8092 59.5937 19.565 58.7489 18.8738Z" fill="#151515"/>
<path d="M59.1178 15.7095C58.1808 12.914 57.2131 11.2551 55.3238 9.65758C52.8354 7.56858 50.2088 6.58552 49.1489 6.09399C51.1765 7.53786 51.0843 8.79741 53.7877 11.3472C55.9075 13.3441 57.3974 13.4977 59.1178 15.7095Z" fill="#151515"/>
<path d="M41.2841 62.6047L39.5638 62.7737C39.5638 62.7737 37.3673 57.9505 31.8376 57.7048C28.2893 57.5512 25.1865 59.3329 21.4079 59.6094C16.8613 59.932 13.7738 58.9797 11.1626 56.5067C13.9121 58.012 17.1531 57.3668 20.901 56.5067C23.3433 55.9537 25.8317 55.7079 27.6903 55.7386C36.292 55.8308 41.2841 62.6047 41.2841 62.6047Z" fill="#151515"/>
<path d="M15.3406 46.6605C16.1394 47.4593 17.23 48.5191 18.2745 50.7771C19.2882 52.9583 19.3036 53.8338 20.2867 55.4313C18.044 54.5864 16.3698 56.2146 10.7018 54.1103C8.07522 53.1426 6.21662 50.6696 5.35645 48.5191C7.36864 50.347 8.99683 51.2686 11.393 51.6219C13.7585 51.9752 15.2638 52.1288 17.2453 53.2962C16.0011 51.9752 15.5403 51.2379 14.8798 49.5022C14.1732 47.6282 14.2808 46.0154 13.482 44.5715C14.0657 45.3088 14.5265 45.8618 15.3406 46.6605Z" fill="#151515"/>
<path d="M12.484 43.8649C13.0677 46.937 12.8988 49.5022 14.4655 51.4683C12.3765 49.7326 10.3336 49.7326 7.52267 48.4884C4.17412 46.8448 2.39233 43.9571 1.4707 39.7637C2.208 41.6223 4.12804 43.3734 6.24776 44.6944C8.06028 45.831 9.99567 46.384 11.332 48.0276C10.564 47.0906 10.349 46.6451 10.18 45.6006C9.64239 42.759 10.5333 41.1462 10.1186 38.1663C10.5333 39.3951 12.1 41.8835 12.484 43.8649Z" fill="#151515"/>
<path d="M9.28888 34.8484C9.50393 39.6716 7.53781 40.6546 8.95096 45.0784C7.70677 43.2966 6.24754 42.759 4.34287 41.0847C1.97738 38.9957 0.0112617 35.8161 0.195585 31.546C0.641034 32.7287 2.05418 35.0328 3.60557 36.661C5.15696 38.2891 6.46259 40.2399 7.13844 41.5916C5.58705 36.2769 8.36726 34.2494 8.68983 31.0544C8.78199 32.2525 9.21208 34.0343 9.28888 34.8484Z" fill="#151515"/>
<path d="M8.36714 29.3649C8.78187 27.7982 8.61291 26.8766 8.96619 25.1255C8.32106 26.6922 4.60387 29.4571 4.98788 34.7871C4.77283 33.804 4.02018 30.8549 2.9296 28.7812C2.06942 27.153 1.20925 25.5248 1.4243 23.1133C0.441239 26.2929 0.48732 28.1207 0.917408 29.7028C1.3475 31.3003 2.40735 32.5138 3.32897 33.7733C3.92802 34.6028 5.20292 36.2156 5.81733 37.7363C5.77125 34.4799 7.81417 31.4232 8.36714 29.3649Z" fill="#151515"/>
<path d="M9.22753 22.7447C10.1184 21.4237 10.5178 19.8108 11.424 18.1059C10.8711 18.8278 10.3795 19.2272 8.98176 20.4099C7.06172 22.0381 5.6025 23.866 4.84984 26.9073C4.7884 25.018 4.558 23.8813 4.17399 21.777C3.8207 19.8723 3.91286 17.7065 4.7884 15.2949C3.09877 17.3378 1.63954 21.3776 2.469 24.0964C3.12949 26.6769 4.23543 27.9825 4.558 29.795C5.71002 26.1546 8.06014 24.465 9.22753 22.7447Z" fill="#151515"/>
<path d="M8.6437 18.8738C9.48851 18.1979 11.6236 16.8616 12.6527 15.6481C13.6972 14.4346 14.2195 13.2673 14.9414 12.192C13.4054 13.6052 12.5759 14.0199 11.0092 14.9723C9.59603 15.7864 7.676 16.8769 6.89262 18.5819C7.35343 17.2917 7.58384 15.5867 7.7528 14.1582C7.9832 12.0231 8.85874 10.7175 9.50387 9.93408C7.41487 11.6084 6.13997 13.0369 5.587 16.0628C5.03403 19.0888 5.6638 21.3775 5.44876 23.0057C6.5547 20.8092 7.78352 19.565 8.6437 18.8738Z" fill="#151515"/>
<path d="M8.25977 15.7095C9.19674 12.914 10.1644 11.2551 12.0538 9.65758C14.5421 7.56858 17.1687 6.58552 18.2132 6.09399C16.1857 7.53786 16.2932 8.79741 13.5744 11.3472C11.4701 13.3441 9.98012 13.4977 8.25977 15.7095Z" fill="#151515"/>
<path d="M35.2325 41.4995C35.2172 41.9604 35.2018 42.4672 35.1865 43.0048C36.3846 43.5732 37.4444 44.4026 37.9513 46.1537C38.0127 43.3581 36.615 42.2368 35.2325 41.4995ZM29.4263 14.0507C30.0254 13.2212 30.8088 12.699 31.6382 12.3764C31.6229 11.4394 31.6075 10.5485 31.5921 9.74981C30.0715 10.1031 29.3342 10.6407 29.027 10.7482C28.1668 11.0401 27.0148 10.9633 25.7706 12.315C25.5402 12.5607 25.0026 13.2366 24.6186 13.7896C24.2499 14.3272 24.2192 15.2027 23.9427 15.6789C23.5433 16.3547 23.6355 16.7387 23.6355 16.7387L23.6816 16.8155C23.6202 16.9845 23.5126 17.2303 23.2669 17.5068C22.8521 17.9676 22.2992 18.2287 21.6387 18.1212C22.207 18.413 22.9904 18.0136 22.9904 18.0136C22.9904 18.0136 22.8061 18.4898 22.6525 19.181C23.1901 17.9522 23.7277 17.3532 23.9734 17.1228C24.2346 17.1996 24.8029 17.1996 25.9088 16.5698C27.1223 15.8632 28.9195 14.7419 29.4263 14.0507ZM27.2298 13.467L26.2775 14.4961L25.7706 14.4193L25.8781 13.9585L26.7537 13.1291L27.4756 13.0676L27.2298 13.467ZM38.151 31.0392C37.2755 30.394 36.2002 29.9025 35.3708 29.5646C35.3554 30.732 35.3401 31.6536 35.3247 32.3755C36.3078 32.8056 36.9682 33.2818 37.0297 33.9269C37.0758 34.5567 36.3692 35.0482 35.2633 35.509L35.125 35.5705C34.8485 35.678 34.5413 35.8009 34.2188 35.9084C33.9883 35.9852 33.6811 36.0927 33.3125 36.2156C32.8978 36.3538 32.5445 36.5074 32.3448 36.5996C30.5016 37.5212 30.4094 38.6886 30.5323 39.7945C30.6398 40.7162 31.3464 41.3306 32.2526 41.7914C32.2373 40.7469 32.2219 39.9942 32.2373 39.8867C32.2834 39.4105 32.5138 39.0726 32.867 38.7961C33.1743 38.5043 33.7119 38.3046 34.4184 38.0128C35.294 37.6748 36.0927 37.4598 37.4291 36.9529C40.5626 35.7548 40.5626 32.8517 38.151 31.0392ZM43.481 15.1874C43.3428 12.914 41.0848 9.79589 35.7701 9.44261C35.7548 10.1953 35.7241 11.0554 35.7087 11.9463C36.062 11.9924 36.3385 12.0385 36.5382 12.0846C39.0726 12.6836 40.1785 14.1121 40.1939 15.5406C40.2093 16.9538 39.0265 18.6127 36.4153 19.3961C36.1541 19.4729 35.8777 19.5497 35.5551 19.6265V19.6418L35.0636 19.7801C34.6488 19.8722 34.0498 20.0105 33.6965 20.0873C33.3125 20.1641 32.867 20.2563 32.5752 20.3484L31.7918 20.5327C31.2081 20.7017 30.6859 20.8707 30.2865 21.055C27.4756 22.3606 26.4004 24.7261 27.0455 27.322C27.4295 28.8734 28.305 29.9793 30.6398 30.7781C31.1313 30.947 31.6229 31.1006 32.099 31.2542L32.053 28.2897C31.4232 28.0286 30.9777 27.7521 30.6244 27.3066C29.7028 26.1239 29.8564 24.465 31.9762 23.6816L32.0376 23.6662C32.0837 23.6509 32.1298 23.6355 32.1758 23.6202C33.1743 23.2976 34.2341 23.0518 35.294 22.8061L35.5244 22.7446C36.999 22.3913 38.4582 22.038 39.6717 21.4083C41.8221 20.287 43.6653 18.4745 43.481 15.1874ZM32.4523 19.6572C33.1743 19.4422 34.188 19.35 34.8639 19.1042C34.8639 18.1826 35.125 7.35361 35.1711 6.78527C35.2786 5.1878 36.8146 0.856201 33.6658 0.856201C30.5937 0.856201 31.9608 5.41821 32.2066 6.8928C32.2987 7.46113 32.4523 18.7202 32.4523 19.6572ZM34.6335 35.0329C34.6488 34.9407 34.7871 24.0042 34.8024 23.6202C34.3877 23.6816 33.0206 24.0502 32.652 24.1885C32.652 24.4343 32.821 35.6626 32.821 35.6626C32.821 35.6626 33.2357 35.509 33.6351 35.3861C34.0805 35.2479 34.4184 35.1097 34.6335 35.0329ZM32.9438 39.9328C32.9131 40.2707 33.1435 49.4254 33.2203 50.3624C33.4047 52.6511 34.1112 52.6972 34.2648 50.4853C34.3109 49.8248 34.6335 39.0726 34.6335 38.6886C33.6504 38.9958 32.9899 39.3798 32.9438 39.9328Z" fill="#151515"/>
</g>
</g>
<defs>
<clipPath id="clip0_604_102">
<rect width="199.991" height="62.67" fill="white" transform="translate(0.180176 0.165039)"/>
</clipPath>
</defs>
</svg>
