<svg width="187" height="32" viewBox="0 0 187 32" fill="none" xmlns="http://www.w3.org/2000/svg">
<path d="M0.556818 25V1.72727H9.07955C10.7311 1.72727 12.0985 2 13.1818 2.54545C14.2652 3.08333 15.0758 3.81439 15.6136 4.73864C16.1515 5.6553 16.4205 6.68939 16.4205 7.84091C16.4205 8.81061 16.2424 9.62879 15.8864 10.2955C15.5303 10.9545 15.053 11.4848 14.4545 11.8864C13.8636 12.2803 13.2121 12.5682 12.5 12.75V12.9773C13.2727 13.0152 14.0265 13.2652 14.7614 13.7273C15.5038 14.1818 16.1174 14.8295 16.6023 15.6705C17.0871 16.5114 17.3295 17.5341 17.3295 18.7386C17.3295 19.928 17.0492 20.9962 16.4886 21.9432C15.9356 22.8826 15.0795 23.6288 13.9205 24.1818C12.7614 24.7273 11.2803 25 9.47727 25H0.556818ZM4.06818 21.9886H9.13636C10.8182 21.9886 12.0227 21.6629 12.75 21.0114C13.4773 20.3598 13.8409 19.5455 13.8409 18.5682C13.8409 17.8333 13.6553 17.1591 13.2841 16.5455C12.9129 15.9318 12.3826 15.4432 11.6932 15.0795C11.0114 14.7159 10.2008 14.5341 9.26136 14.5341H4.06818V21.9886ZM4.06818 11.7955H8.77273C9.56061 11.7955 10.2689 11.6439 10.8977 11.3409C11.5341 11.0379 12.0379 10.6136 12.4091 10.0682C12.7879 9.51515 12.9773 8.86364 12.9773 8.11364C12.9773 7.15151 12.6402 6.3447 11.9659 5.69318C11.2917 5.04167 10.2576 4.71591 8.86364 4.71591H4.06818V11.7955ZM19.3016 25V7.54545H22.5857V10.3182H22.7675C23.0857 9.37879 23.6463 8.64015 24.4493 8.10227C25.2599 7.55682 26.1766 7.28409 27.1993 7.28409C27.4114 7.28409 27.6614 7.29167 27.9493 7.30682C28.2448 7.32197 28.4758 7.34091 28.6425 7.36364V10.6136C28.5061 10.5758 28.2637 10.5341 27.9152 10.4886C27.5667 10.4356 27.2183 10.4091 26.8698 10.4091C26.0667 10.4091 25.3508 10.5795 24.722 10.9205C24.1008 11.2538 23.6084 11.7197 23.2448 12.3182C22.8811 12.9091 22.6993 13.5833 22.6993 14.3409V25H19.3016ZM34.5861 25.3864C33.4801 25.3864 32.4801 25.1818 31.5861 24.7727C30.6922 24.3561 29.9839 23.7538 29.4611 22.9659C28.946 22.178 28.6884 21.2121 28.6884 20.0682C28.6884 19.0833 28.8778 18.2727 29.2566 17.6364C29.6354 17 30.1467 16.4962 30.7907 16.125C31.4346 15.7538 32.1543 15.4735 32.9498 15.2841C33.7452 15.0947 34.5558 14.9508 35.3816 14.8523C36.427 14.7311 37.2755 14.6326 37.927 14.5568C38.5786 14.4735 39.052 14.3409 39.3475 14.1591C39.643 13.9773 39.7907 13.6818 39.7907 13.2727V13.1932C39.7907 12.2008 39.5104 11.4318 38.9498 10.8864C38.3967 10.3409 37.571 10.0682 36.4725 10.0682C35.3286 10.0682 34.427 10.322 33.768 10.8295C33.1164 11.3295 32.6657 11.8864 32.4157 12.5L29.2225 11.7727C29.6013 10.7121 30.1543 9.85606 30.8816 9.20455C31.6164 8.54545 32.4611 8.06818 33.4157 7.77273C34.3702 7.4697 35.374 7.31818 36.427 7.31818C37.124 7.31818 37.8627 7.40152 38.643 7.56818C39.4308 7.72727 40.1657 8.02273 40.8475 8.45454C41.5369 8.88636 42.1013 9.50379 42.5407 10.3068C42.9801 11.1023 43.1998 12.1364 43.1998 13.4091V25H39.8816V22.6136H39.7452C39.5255 23.053 39.196 23.4848 38.7566 23.9091C38.3172 24.3333 37.7528 24.6856 37.0634 24.9659C36.374 25.2462 35.5483 25.3864 34.5861 25.3864ZM35.3248 22.6591C36.2642 22.6591 37.0672 22.4735 37.7339 22.1023C38.4081 21.7311 38.9195 21.2462 39.268 20.6477C39.624 20.0417 39.802 19.3939 39.802 18.7045V16.4545C39.6808 16.5758 39.446 16.6894 39.0975 16.7955C38.7566 16.8939 38.3664 16.9811 37.927 17.0568C37.4877 17.125 37.0596 17.1894 36.643 17.25C36.2263 17.303 35.8778 17.3485 35.5975 17.3864C34.9384 17.4697 34.3361 17.6098 33.7907 17.8068C33.2528 18.0038 32.821 18.2879 32.4952 18.6591C32.177 19.0227 32.018 19.5076 32.018 20.1136C32.018 20.9545 32.3286 21.5909 32.9498 22.0227C33.571 22.447 34.3627 22.6591 35.3248 22.6591ZM49.2031 14.6364V25H45.8053V7.54545H49.0667V10.3864H49.2826C49.6841 9.46212 50.3129 8.7197 51.169 8.15909C52.0326 7.59848 53.1197 7.31818 54.4303 7.31818C55.6197 7.31818 56.6614 7.56818 57.5553 8.06818C58.4493 8.56061 59.1425 9.29545 59.6349 10.2727C60.1273 11.25 60.3735 12.4583 60.3735 13.8977V25H56.9758V14.3068C56.9758 13.0417 56.6463 12.053 55.9872 11.3409C55.3281 10.6212 54.4228 10.2614 53.2713 10.2614C52.4834 10.2614 51.7826 10.4318 51.169 10.7727C50.5629 11.1136 50.0819 11.6136 49.7258 12.2727C49.3773 12.9242 49.2031 13.7121 49.2031 14.6364ZM69.5444 25.3409C68.1353 25.3409 66.8778 24.9811 65.7717 24.2614C64.6732 23.5341 63.8096 22.5 63.1808 21.1591C62.5596 19.8106 62.249 18.1932 62.249 16.3068C62.249 14.4205 62.5634 12.8068 63.1922 11.4659C63.8285 10.125 64.6997 9.09848 65.8058 8.38636C66.9119 7.67424 68.1656 7.31818 69.5672 7.31818C70.6505 7.31818 71.5217 7.5 72.1808 7.86364C72.8475 8.2197 73.3626 8.63636 73.7262 9.11364C74.0975 9.59091 74.3853 10.0114 74.5899 10.375H74.7944V1.72727H78.1922V25H74.874V22.2841H74.5899C74.3853 22.6553 74.0899 23.0795 73.7035 23.5568C73.3247 24.0341 72.802 24.4508 72.1353 24.8068C71.4687 25.1629 70.605 25.3409 69.5444 25.3409ZM70.2944 22.4432C71.2717 22.4432 72.0975 22.1856 72.7717 21.6705C73.4535 21.1477 73.9687 20.4242 74.3172 19.5C74.6732 18.5758 74.8512 17.5 74.8512 16.2727C74.8512 15.0606 74.677 14 74.3285 13.0909C73.98 12.1818 73.4687 11.4735 72.7944 10.9659C72.1202 10.4583 71.2869 10.2045 70.2944 10.2045C69.2717 10.2045 68.4194 10.4697 67.7376 11C67.0558 11.5303 66.5406 12.2538 66.1922 13.1705C65.8512 14.0871 65.6808 15.1212 65.6808 16.2727C65.6808 17.4394 65.855 18.4886 66.2035 19.4205C66.552 20.3523 67.0672 21.0909 67.749 21.6364C68.4384 22.1742 69.2869 22.4432 70.2944 22.4432ZM83.4284 1.72727L89.9057 20.6818H90.167L96.6443 1.72727H100.44L92.0648 25H88.008L79.633 1.72727H83.4284ZM101.608 25V7.54545H105.006V25H101.608ZM103.324 4.85227C102.733 4.85227 102.225 4.6553 101.801 4.26136C101.384 3.85985 101.176 3.38257 101.176 2.82954C101.176 2.26894 101.384 1.79167 101.801 1.39773C102.225 0.996211 102.733 0.795454 103.324 0.795454C103.915 0.795454 104.418 0.996211 104.835 1.39773C105.259 1.79167 105.471 2.26894 105.471 2.82954C105.471 3.38257 105.259 3.85985 104.835 4.26136C104.418 4.6553 103.915 4.85227 103.324 4.85227ZM111.054 1.72727V25H107.657V1.72727H111.054ZM117.103 1.72727V25H113.705V1.72727H117.103ZM124.834 25.3864C123.728 25.3864 122.728 25.1818 121.834 24.7727C120.94 24.3561 120.231 23.7538 119.709 22.9659C119.193 22.178 118.936 21.2121 118.936 20.0682C118.936 19.0833 119.125 18.2727 119.504 17.6364C119.883 17 120.394 16.4962 121.038 16.125C121.682 15.7538 122.402 15.4735 123.197 15.2841C123.993 15.0947 124.803 14.9508 125.629 14.8523C126.675 14.7311 127.523 14.6326 128.175 14.5568C128.826 14.4735 129.3 14.3409 129.595 14.1591C129.89 13.9773 130.038 13.6818 130.038 13.2727V13.1932C130.038 12.2008 129.758 11.4318 129.197 10.8864C128.644 10.3409 127.818 10.0682 126.72 10.0682C125.576 10.0682 124.675 10.322 124.015 10.8295C123.364 11.3295 122.913 11.8864 122.663 12.5L119.47 11.7727C119.849 10.7121 120.402 9.85606 121.129 9.20455C121.864 8.54545 122.709 8.06818 123.663 7.77273C124.618 7.4697 125.622 7.31818 126.675 7.31818C127.372 7.31818 128.11 7.40152 128.89 7.56818C129.678 7.72727 130.413 8.02273 131.095 8.45454C131.784 8.88636 132.349 9.50379 132.788 10.3068C133.228 11.1023 133.447 12.1364 133.447 13.4091V25H130.129V22.6136H129.993C129.773 23.053 129.443 23.4848 129.004 23.9091C128.565 24.3333 128 24.6856 127.311 24.9659C126.622 25.2462 125.796 25.3864 124.834 25.3864ZM125.572 22.6591C126.512 22.6591 127.315 22.4735 127.981 22.1023C128.656 21.7311 129.167 21.2462 129.515 20.6477C129.872 20.0417 130.05 19.3939 130.05 18.7045V16.4545C129.928 16.5758 129.693 16.6894 129.345 16.7955C129.004 16.8939 128.614 16.9811 128.175 17.0568C127.735 17.125 127.307 17.1894 126.89 17.25C126.474 17.303 126.125 17.3485 125.845 17.3864C125.186 17.4697 124.584 17.6098 124.038 17.8068C123.5 18.0038 123.068 18.2879 122.743 18.6591C122.425 19.0227 122.265 19.5076 122.265 20.1136C122.265 20.9545 122.576 21.5909 123.197 22.0227C123.818 22.447 124.61 22.6591 125.572 22.6591ZM143.371 31.9091C141.985 31.9091 140.791 31.7273 139.791 31.3636C138.799 31 137.988 30.5189 137.36 29.9205C136.731 29.322 136.261 28.6667 135.951 27.9545L138.871 26.75C139.076 27.0833 139.348 27.4356 139.689 27.8068C140.038 28.1856 140.507 28.5076 141.098 28.7727C141.697 29.0379 142.466 29.1705 143.405 29.1705C144.693 29.1705 145.757 28.8561 146.598 28.2273C147.439 27.6061 147.86 26.6136 147.86 25.25V21.8182H147.644C147.439 22.1894 147.144 22.6023 146.757 23.0568C146.379 23.5114 145.856 23.9053 145.189 24.2386C144.523 24.572 143.655 24.7386 142.587 24.7386C141.208 24.7386 139.966 24.4167 138.86 23.7727C137.761 23.1212 136.89 22.1629 136.246 20.8977C135.61 19.625 135.291 18.0606 135.291 16.2045C135.291 14.3485 135.606 12.7576 136.235 11.4318C136.871 10.1061 137.742 9.09091 138.848 8.38636C139.954 7.67424 141.208 7.31818 142.61 7.31818C143.693 7.31818 144.568 7.5 145.235 7.86364C145.901 8.2197 146.42 8.63636 146.791 9.11364C147.17 9.59091 147.462 10.0114 147.666 10.375H147.916V7.54545H151.246V25.3864C151.246 26.8864 150.898 28.1174 150.201 29.0795C149.504 30.0417 148.56 30.7538 147.371 31.2159C146.189 31.678 144.856 31.9091 143.371 31.9091ZM143.337 21.9205C144.314 21.9205 145.14 21.6932 145.814 21.2386C146.496 20.7765 147.011 20.1174 147.36 19.2614C147.716 18.3977 147.894 17.3636 147.894 16.1591C147.894 14.9848 147.72 13.9508 147.371 13.0568C147.023 12.1629 146.511 11.4659 145.837 10.9659C145.163 10.4583 144.329 10.2045 143.337 10.2045C142.314 10.2045 141.462 10.4697 140.78 11C140.098 11.5227 139.583 12.2348 139.235 13.1364C138.894 14.0379 138.723 15.0455 138.723 16.1591C138.723 17.303 138.898 18.3068 139.246 19.1705C139.595 20.0341 140.11 20.7083 140.791 21.1932C141.481 21.678 142.329 21.9205 143.337 21.9205ZM161.406 25.3523C159.686 25.3523 158.205 24.9848 156.962 24.25C155.728 23.5076 154.773 22.4659 154.099 21.125C153.432 19.7765 153.099 18.197 153.099 16.3864C153.099 14.5985 153.432 13.0227 154.099 11.6591C154.773 10.2955 155.712 9.23106 156.917 8.46591C158.129 7.70076 159.546 7.31818 161.167 7.31818C162.152 7.31818 163.106 7.48106 164.031 7.80682C164.955 8.13258 165.784 8.64394 166.519 9.34091C167.254 10.0379 167.834 10.9432 168.258 12.0568C168.682 13.1629 168.894 14.5076 168.894 16.0909V17.2955H155.019V14.75H165.565C165.565 13.8561 165.383 13.0644 165.019 12.375C164.656 11.678 164.144 11.1288 163.485 10.7273C162.834 10.3258 162.068 10.125 161.19 10.125C160.235 10.125 159.402 10.3598 158.69 10.8295C157.985 11.2917 157.44 11.8977 157.053 12.6477C156.675 13.3902 156.485 14.197 156.485 15.0682V17.0568C156.485 18.2235 156.69 19.2159 157.099 20.0341C157.515 20.8523 158.095 21.4773 158.837 21.9091C159.58 22.3333 160.447 22.5455 161.44 22.5455C162.084 22.5455 162.671 22.4545 163.201 22.2727C163.731 22.0833 164.19 21.803 164.576 21.4318C164.962 21.0606 165.258 20.6023 165.462 20.0568L168.678 20.6364C168.421 21.5833 167.959 22.4129 167.292 23.125C166.633 23.8295 165.803 24.3788 164.803 24.7727C163.811 25.1591 162.678 25.3523 161.406 25.3523ZM181.937 10.0909L178.346 1.72727H179.971L182.392 7.65909L184.801 1.72727H186.426L182.846 10.0909H181.937ZM177.949 10.0909V1.72727H179.619V10.0909H177.949ZM185.153 10.0909V1.72727H186.824V10.0909H185.153ZM172.278 10.0909V2.45454H173.949V10.0909H172.278ZM169.733 3.15909V1.72727H176.494V3.15909H169.733Z" fill="black"/>
</svg>
